<?xml version="1.0" encoding="utf-8" standalone="no"?>
<!DOCTYPE svg PUBLIC "-//W3C//DTD SVG 1.1//EN"
  "http://www.w3.org/Graphics/SVG/1.1/DTD/svg11.dtd">
<svg height="279.89875pt" version="1.1" viewBox="0 0 424.539375 279.89875" width="424.539375pt" xmlns="http://www.w3.org/2000/svg" xmlns:xlink="http://www.w3.org/1999/xlink">
 <metadata>
  <rdf:RDF xmlns:cc="http://creativecommons.org/ns#" xmlns:dc="http://purl.org/dc/elements/1.1/" xmlns:rdf="http://www.w3.org/1999/02/22-rdf-syntax-ns#">
   <cc:Work>
    <dc:type rdf:resource="http://purl.org/dc/dcmitype/StillImage"/>
    <dc:date>2021-07-28T20:05:34.334609</dc:date>
    <dc:format>image/svg+xml</dc:format>
    <dc:creator>
     <cc:Agent>
      <dc:title>Matplotlib v3.4.2, https://matplotlib.org/</dc:title>
     </cc:Agent>
    </dc:creator>
   </cc:Work>
  </rdf:RDF>
 </metadata>
 <defs>
  <style type="text/css">*{stroke-linecap:butt;stroke-linejoin:round;}</style>
 </defs>
 <g id="figure_1">
  <g id="patch_1">
   <path d="M -0 279.89875 
L 424.539375 279.89875 
L 424.539375 0 
L -0 0 
z
" style="fill:none;"/>
  </g>
  <g id="axes_1">
   <g id="patch_2">
    <path d="M 49.564375 234.6 
L 417.339375 234.6 
L 417.339375 7.2 
L 49.564375 7.2 
z
" style="fill:#ffffff;"/>
   </g>
   <g id="matplotlib.axis_1">
    <g id="xtick_1">
     <g id="line2d_1">
      <path clip-path="url(#p31e46c234b)" d="M 66.28142 234.6 
L 66.28142 7.2 
" style="fill:none;stroke:#b0b0b0;stroke-linecap:square;stroke-width:0.8;"/>
     </g>
     <g id="line2d_2">
      <defs>
       <path d="M 0 0 
L 0 3.5 
" id="m0e120c1e68" style="stroke:#000000;stroke-width:0.8;"/>
      </defs>
      <g>
       <use style="stroke:#000000;stroke-width:0.8;" x="66.28142" xlink:href="#m0e120c1e68" y="234.6"/>
      </g>
     </g>
     <g id="text_1">
      <!-- 0.0 -->
      <g transform="translate(55.149233 252.237812)scale(0.14 -0.14)">
       <defs>
        <path d="M 2034 4250 
Q 1547 4250 1301 3770 
Q 1056 3291 1056 2328 
Q 1056 1369 1301 889 
Q 1547 409 2034 409 
Q 2525 409 2770 889 
Q 3016 1369 3016 2328 
Q 3016 3291 2770 3770 
Q 2525 4250 2034 4250 
z
M 2034 4750 
Q 2819 4750 3233 4129 
Q 3647 3509 3647 2328 
Q 3647 1150 3233 529 
Q 2819 -91 2034 -91 
Q 1250 -91 836 529 
Q 422 1150 422 2328 
Q 422 3509 836 4129 
Q 1250 4750 2034 4750 
z
" id="DejaVuSans-30" transform="scale(0.015625)"/>
        <path d="M 684 794 
L 1344 794 
L 1344 0 
L 684 0 
L 684 794 
z
" id="DejaVuSans-2e" transform="scale(0.015625)"/>
       </defs>
       <use xlink:href="#DejaVuSans-30"/>
       <use x="63.623047" xlink:href="#DejaVuSans-2e"/>
       <use x="95.410156" xlink:href="#DejaVuSans-30"/>
      </g>
     </g>
    </g>
    <g id="xtick_2">
     <g id="line2d_3">
      <path clip-path="url(#p31e46c234b)" d="M 131.879107 234.6 
L 131.879107 7.2 
" style="fill:none;stroke:#b0b0b0;stroke-linecap:square;stroke-width:0.8;"/>
     </g>
     <g id="line2d_4">
      <g>
       <use style="stroke:#000000;stroke-width:0.8;" x="131.879107" xlink:href="#m0e120c1e68" y="234.6"/>
      </g>
     </g>
     <g id="text_2">
      <!-- 0.2 -->
      <g transform="translate(120.746919 252.237812)scale(0.14 -0.14)">
       <defs>
        <path d="M 1228 531 
L 3431 531 
L 3431 0 
L 469 0 
L 469 531 
Q 828 903 1448 1529 
Q 2069 2156 2228 2338 
Q 2531 2678 2651 2914 
Q 2772 3150 2772 3378 
Q 2772 3750 2511 3984 
Q 2250 4219 1831 4219 
Q 1534 4219 1204 4116 
Q 875 4013 500 3803 
L 500 4441 
Q 881 4594 1212 4672 
Q 1544 4750 1819 4750 
Q 2544 4750 2975 4387 
Q 3406 4025 3406 3419 
Q 3406 3131 3298 2873 
Q 3191 2616 2906 2266 
Q 2828 2175 2409 1742 
Q 1991 1309 1228 531 
z
" id="DejaVuSans-32" transform="scale(0.015625)"/>
       </defs>
       <use xlink:href="#DejaVuSans-30"/>
       <use x="63.623047" xlink:href="#DejaVuSans-2e"/>
       <use x="95.410156" xlink:href="#DejaVuSans-32"/>
      </g>
     </g>
    </g>
    <g id="xtick_3">
     <g id="line2d_5">
      <path clip-path="url(#p31e46c234b)" d="M 197.476793 234.6 
L 197.476793 7.2 
" style="fill:none;stroke:#b0b0b0;stroke-linecap:square;stroke-width:0.8;"/>
     </g>
     <g id="line2d_6">
      <g>
       <use style="stroke:#000000;stroke-width:0.8;" x="197.476793" xlink:href="#m0e120c1e68" y="234.6"/>
      </g>
     </g>
     <g id="text_3">
      <!-- 0.4 -->
      <g transform="translate(186.344606 252.237812)scale(0.14 -0.14)">
       <defs>
        <path d="M 2419 4116 
L 825 1625 
L 2419 1625 
L 2419 4116 
z
M 2253 4666 
L 3047 4666 
L 3047 1625 
L 3713 1625 
L 3713 1100 
L 3047 1100 
L 3047 0 
L 2419 0 
L 2419 1100 
L 313 1100 
L 313 1709 
L 2253 4666 
z
" id="DejaVuSans-34" transform="scale(0.015625)"/>
       </defs>
       <use xlink:href="#DejaVuSans-30"/>
       <use x="63.623047" xlink:href="#DejaVuSans-2e"/>
       <use x="95.410156" xlink:href="#DejaVuSans-34"/>
      </g>
     </g>
    </g>
    <g id="xtick_4">
     <g id="line2d_7">
      <path clip-path="url(#p31e46c234b)" d="M 263.07448 234.6 
L 263.07448 7.2 
" style="fill:none;stroke:#b0b0b0;stroke-linecap:square;stroke-width:0.8;"/>
     </g>
     <g id="line2d_8">
      <g>
       <use style="stroke:#000000;stroke-width:0.8;" x="263.07448" xlink:href="#m0e120c1e68" y="234.6"/>
      </g>
     </g>
     <g id="text_4">
      <!-- 0.6 -->
      <g transform="translate(251.942292 252.237812)scale(0.14 -0.14)">
       <defs>
        <path d="M 2113 2584 
Q 1688 2584 1439 2293 
Q 1191 2003 1191 1497 
Q 1191 994 1439 701 
Q 1688 409 2113 409 
Q 2538 409 2786 701 
Q 3034 994 3034 1497 
Q 3034 2003 2786 2293 
Q 2538 2584 2113 2584 
z
M 3366 4563 
L 3366 3988 
Q 3128 4100 2886 4159 
Q 2644 4219 2406 4219 
Q 1781 4219 1451 3797 
Q 1122 3375 1075 2522 
Q 1259 2794 1537 2939 
Q 1816 3084 2150 3084 
Q 2853 3084 3261 2657 
Q 3669 2231 3669 1497 
Q 3669 778 3244 343 
Q 2819 -91 2113 -91 
Q 1303 -91 875 529 
Q 447 1150 447 2328 
Q 447 3434 972 4092 
Q 1497 4750 2381 4750 
Q 2619 4750 2861 4703 
Q 3103 4656 3366 4563 
z
" id="DejaVuSans-36" transform="scale(0.015625)"/>
       </defs>
       <use xlink:href="#DejaVuSans-30"/>
       <use x="63.623047" xlink:href="#DejaVuSans-2e"/>
       <use x="95.410156" xlink:href="#DejaVuSans-36"/>
      </g>
     </g>
    </g>
    <g id="xtick_5">
     <g id="line2d_9">
      <path clip-path="url(#p31e46c234b)" d="M 328.672166 234.6 
L 328.672166 7.2 
" style="fill:none;stroke:#b0b0b0;stroke-linecap:square;stroke-width:0.8;"/>
     </g>
     <g id="line2d_10">
      <g>
       <use style="stroke:#000000;stroke-width:0.8;" x="328.672166" xlink:href="#m0e120c1e68" y="234.6"/>
      </g>
     </g>
     <g id="text_5">
      <!-- 0.8 -->
      <g transform="translate(317.539978 252.237812)scale(0.14 -0.14)">
       <defs>
        <path d="M 2034 2216 
Q 1584 2216 1326 1975 
Q 1069 1734 1069 1313 
Q 1069 891 1326 650 
Q 1584 409 2034 409 
Q 2484 409 2743 651 
Q 3003 894 3003 1313 
Q 3003 1734 2745 1975 
Q 2488 2216 2034 2216 
z
M 1403 2484 
Q 997 2584 770 2862 
Q 544 3141 544 3541 
Q 544 4100 942 4425 
Q 1341 4750 2034 4750 
Q 2731 4750 3128 4425 
Q 3525 4100 3525 3541 
Q 3525 3141 3298 2862 
Q 3072 2584 2669 2484 
Q 3125 2378 3379 2068 
Q 3634 1759 3634 1313 
Q 3634 634 3220 271 
Q 2806 -91 2034 -91 
Q 1263 -91 848 271 
Q 434 634 434 1313 
Q 434 1759 690 2068 
Q 947 2378 1403 2484 
z
M 1172 3481 
Q 1172 3119 1398 2916 
Q 1625 2713 2034 2713 
Q 2441 2713 2670 2916 
Q 2900 3119 2900 3481 
Q 2900 3844 2670 4047 
Q 2441 4250 2034 4250 
Q 1625 4250 1398 4047 
Q 1172 3844 1172 3481 
z
" id="DejaVuSans-38" transform="scale(0.015625)"/>
       </defs>
       <use xlink:href="#DejaVuSans-30"/>
       <use x="63.623047" xlink:href="#DejaVuSans-2e"/>
       <use x="95.410156" xlink:href="#DejaVuSans-38"/>
      </g>
     </g>
    </g>
    <g id="xtick_6">
     <g id="line2d_11">
      <path clip-path="url(#p31e46c234b)" d="M 394.269852 234.6 
L 394.269852 7.2 
" style="fill:none;stroke:#b0b0b0;stroke-linecap:square;stroke-width:0.8;"/>
     </g>
     <g id="line2d_12">
      <g>
       <use style="stroke:#000000;stroke-width:0.8;" x="394.269852" xlink:href="#m0e120c1e68" y="234.6"/>
      </g>
     </g>
     <g id="text_6">
      <!-- 1.0 -->
      <g transform="translate(383.137665 252.237812)scale(0.14 -0.14)">
       <defs>
        <path d="M 794 531 
L 1825 531 
L 1825 4091 
L 703 3866 
L 703 4441 
L 1819 4666 
L 2450 4666 
L 2450 531 
L 3481 531 
L 3481 0 
L 794 0 
L 794 531 
z
" id="DejaVuSans-31" transform="scale(0.015625)"/>
       </defs>
       <use xlink:href="#DejaVuSans-31"/>
       <use x="63.623047" xlink:href="#DejaVuSans-2e"/>
       <use x="95.410156" xlink:href="#DejaVuSans-30"/>
      </g>
     </g>
    </g>
    <g id="text_7">
     <!-- $t$ -->
     <g transform="translate(230.651875 269.787187)scale(0.14 -0.14)">
      <defs>
       <path d="M 2706 3500 
L 2619 3053 
L 1472 3053 
L 1100 1153 
Q 1081 1047 1072 975 
Q 1063 903 1063 863 
Q 1063 663 1183 572 
Q 1303 481 1569 481 
L 2150 481 
L 2053 0 
L 1503 0 
Q 991 0 739 200 
Q 488 400 488 806 
Q 488 878 497 964 
Q 506 1050 525 1153 
L 897 3053 
L 409 3053 
L 500 3500 
L 978 3500 
L 1172 4494 
L 1747 4494 
L 1556 3500 
L 2706 3500 
z
" id="DejaVuSans-Oblique-74" transform="scale(0.015625)"/>
      </defs>
      <use transform="translate(0 0.78125)" xlink:href="#DejaVuSans-Oblique-74"/>
     </g>
    </g>
   </g>
   <g id="matplotlib.axis_2">
    <g id="ytick_1">
     <g id="line2d_13">
      <path clip-path="url(#p31e46c234b)" d="M 49.564375 215.329755 
L 417.339375 215.329755 
" style="fill:none;stroke:#b0b0b0;stroke-linecap:square;stroke-width:0.8;"/>
     </g>
     <g id="line2d_14">
      <defs>
       <path d="M 0 0 
L -3.5 0 
" id="m622526c972" style="stroke:#000000;stroke-width:0.8;"/>
      </defs>
      <g>
       <use style="stroke:#000000;stroke-width:0.8;" x="49.564375" xlink:href="#m622526c972" y="215.329755"/>
      </g>
     </g>
     <g id="text_8">
      <!-- 0 -->
      <g transform="translate(33.656875 220.648662)scale(0.14 -0.14)">
       <use xlink:href="#DejaVuSans-30"/>
      </g>
     </g>
    </g>
    <g id="ytick_2">
     <g id="line2d_15">
      <path clip-path="url(#p31e46c234b)" d="M 49.564375 183.859571 
L 417.339375 183.859571 
" style="fill:none;stroke:#b0b0b0;stroke-linecap:square;stroke-width:0.8;"/>
     </g>
     <g id="line2d_16">
      <g>
       <use style="stroke:#000000;stroke-width:0.8;" x="49.564375" xlink:href="#m622526c972" y="183.859571"/>
      </g>
     </g>
     <g id="text_9">
      <!-- 5 -->
      <g transform="translate(33.656875 189.178478)scale(0.14 -0.14)">
       <defs>
        <path d="M 691 4666 
L 3169 4666 
L 3169 4134 
L 1269 4134 
L 1269 2991 
Q 1406 3038 1543 3061 
Q 1681 3084 1819 3084 
Q 2600 3084 3056 2656 
Q 3513 2228 3513 1497 
Q 3513 744 3044 326 
Q 2575 -91 1722 -91 
Q 1428 -91 1123 -41 
Q 819 9 494 109 
L 494 744 
Q 775 591 1075 516 
Q 1375 441 1709 441 
Q 2250 441 2565 725 
Q 2881 1009 2881 1497 
Q 2881 1984 2565 2268 
Q 2250 2553 1709 2553 
Q 1456 2553 1204 2497 
Q 953 2441 691 2322 
L 691 4666 
z
" id="DejaVuSans-35" transform="scale(0.015625)"/>
       </defs>
       <use xlink:href="#DejaVuSans-35"/>
      </g>
     </g>
    </g>
    <g id="ytick_3">
     <g id="line2d_17">
      <path clip-path="url(#p31e46c234b)" d="M 49.564375 152.389387 
L 417.339375 152.389387 
" style="fill:none;stroke:#b0b0b0;stroke-linecap:square;stroke-width:0.8;"/>
     </g>
     <g id="line2d_18">
      <g>
       <use style="stroke:#000000;stroke-width:0.8;" x="49.564375" xlink:href="#m622526c972" y="152.389387"/>
      </g>
     </g>
     <g id="text_10">
      <!-- 10 -->
      <g transform="translate(24.749375 157.708294)scale(0.14 -0.14)">
       <use xlink:href="#DejaVuSans-31"/>
       <use x="63.623047" xlink:href="#DejaVuSans-30"/>
      </g>
     </g>
    </g>
    <g id="ytick_4">
     <g id="line2d_19">
      <path clip-path="url(#p31e46c234b)" d="M 49.564375 120.919203 
L 417.339375 120.919203 
" style="fill:none;stroke:#b0b0b0;stroke-linecap:square;stroke-width:0.8;"/>
     </g>
     <g id="line2d_20">
      <g>
       <use style="stroke:#000000;stroke-width:0.8;" x="49.564375" xlink:href="#m622526c972" y="120.919203"/>
      </g>
     </g>
     <g id="text_11">
      <!-- 15 -->
      <g transform="translate(24.749375 126.23811)scale(0.14 -0.14)">
       <use xlink:href="#DejaVuSans-31"/>
       <use x="63.623047" xlink:href="#DejaVuSans-35"/>
      </g>
     </g>
    </g>
    <g id="ytick_5">
     <g id="line2d_21">
      <path clip-path="url(#p31e46c234b)" d="M 49.564375 89.449019 
L 417.339375 89.449019 
" style="fill:none;stroke:#b0b0b0;stroke-linecap:square;stroke-width:0.8;"/>
     </g>
     <g id="line2d_22">
      <g>
       <use style="stroke:#000000;stroke-width:0.8;" x="49.564375" xlink:href="#m622526c972" y="89.449019"/>
      </g>
     </g>
     <g id="text_12">
      <!-- 20 -->
      <g transform="translate(24.749375 94.767926)scale(0.14 -0.14)">
       <use xlink:href="#DejaVuSans-32"/>
       <use x="63.623047" xlink:href="#DejaVuSans-30"/>
      </g>
     </g>
    </g>
    <g id="ytick_6">
     <g id="line2d_23">
      <path clip-path="url(#p31e46c234b)" d="M 49.564375 57.978835 
L 417.339375 57.978835 
" style="fill:none;stroke:#b0b0b0;stroke-linecap:square;stroke-width:0.8;"/>
     </g>
     <g id="line2d_24">
      <g>
       <use style="stroke:#000000;stroke-width:0.8;" x="49.564375" xlink:href="#m622526c972" y="57.978835"/>
      </g>
     </g>
     <g id="text_13">
      <!-- 25 -->
      <g transform="translate(24.749375 63.297742)scale(0.14 -0.14)">
       <use xlink:href="#DejaVuSans-32"/>
       <use x="63.623047" xlink:href="#DejaVuSans-35"/>
      </g>
     </g>
    </g>
    <g id="ytick_7">
     <g id="line2d_25">
      <path clip-path="url(#p31e46c234b)" d="M 49.564375 26.508651 
L 417.339375 26.508651 
" style="fill:none;stroke:#b0b0b0;stroke-linecap:square;stroke-width:0.8;"/>
     </g>
     <g id="line2d_26">
      <g>
       <use style="stroke:#000000;stroke-width:0.8;" x="49.564375" xlink:href="#m622526c972" y="26.508651"/>
      </g>
     </g>
     <g id="text_14">
      <!-- 30 -->
      <g transform="translate(24.749375 31.827558)scale(0.14 -0.14)">
       <defs>
        <path d="M 2597 2516 
Q 3050 2419 3304 2112 
Q 3559 1806 3559 1356 
Q 3559 666 3084 287 
Q 2609 -91 1734 -91 
Q 1441 -91 1130 -33 
Q 819 25 488 141 
L 488 750 
Q 750 597 1062 519 
Q 1375 441 1716 441 
Q 2309 441 2620 675 
Q 2931 909 2931 1356 
Q 2931 1769 2642 2001 
Q 2353 2234 1838 2234 
L 1294 2234 
L 1294 2753 
L 1863 2753 
Q 2328 2753 2575 2939 
Q 2822 3125 2822 3475 
Q 2822 3834 2567 4026 
Q 2313 4219 1838 4219 
Q 1578 4219 1281 4162 
Q 984 4106 628 3988 
L 628 4550 
Q 988 4650 1302 4700 
Q 1616 4750 1894 4750 
Q 2613 4750 3031 4423 
Q 3450 4097 3450 3541 
Q 3450 3153 3228 2886 
Q 3006 2619 2597 2516 
z
" id="DejaVuSans-33" transform="scale(0.015625)"/>
       </defs>
       <use xlink:href="#DejaVuSans-33"/>
       <use x="63.623047" xlink:href="#DejaVuSans-30"/>
      </g>
     </g>
    </g>
    <g id="text_15">
     <!-- $\omega$ -->
     <g transform="translate(17.837813 126.78)rotate(-90)scale(0.14 -0.14)">
      <defs>
       <path d="M 1369 -91 
Q 72 -91 434 1766 
Q 575 2500 1256 3500 
L 1875 3500 
Q 1231 2500 1088 1750 
Q 819 397 1519 397 
Q 2166 397 2478 2078 
L 3009 2078 
Q 2669 388 3316 397 
Q 4013 403 4275 1750 
Q 4419 2500 4169 3500 
L 4788 3500 
Q 5075 2500 4934 1766 
Q 4578 -94 3278 -91 
Q 2428 -88 2503 844 
Q 2194 -91 1369 -91 
z
" id="DejaVuSans-Oblique-3c9" transform="scale(0.015625)"/>
      </defs>
      <use transform="translate(0 0.3125)" xlink:href="#DejaVuSans-Oblique-3c9"/>
     </g>
    </g>
   </g>
   <g id="line2d_27">
    <path clip-path="url(#p31e46c234b)" d="M 66.28142 17.596758 
L 69.62483 17.560866 
L 72.968239 17.539043 
L 76.311648 17.539738 
L 79.655057 17.56268 
L 82.998466 17.598989 
L 86.341875 17.634611 
L 89.685284 17.655768 
L 93.028693 17.654277 
L 96.372102 17.630716 
L 99.715511 17.594196 
L 103.05892 17.558844 
L 106.40233 17.538343 
L 109.745739 17.540631 
L 113.089148 17.564821 
L 116.432557 17.601549 
L 119.775966 17.6366 
L 123.119375 17.656416 
L 126.462784 17.653334 
L 129.806193 17.628547 
L 133.149602 17.591639 
L 136.493011 17.556889 
L 139.83642 17.537747 
L 143.17983 17.541624 
L 146.523239 17.567019 
L 149.866648 17.604101 
L 153.210057 17.638518 
L 156.553466 17.656959 
L 159.896875 17.652292 
L 163.240284 17.626322 
L 166.583693 17.589092 
L 169.927102 17.555006 
L 173.270511 17.537256 
L 176.61392 17.542716 
L 179.95733 17.569271 
L 183.300739 17.606641 
L 186.644148 17.640363 
L 189.987557 17.657396 
L 193.330966 17.651152 
L 196.674375 17.624046 
L 200.017784 17.58656 
L 203.361193 17.553197 
L 206.704602 17.536872 
L 210.048011 17.543905 
L 213.39142 17.571572 
L 216.73483 17.609164 
L 220.078239 17.642132 
L 223.421648 17.657726 
L 226.765057 17.649916 
L 230.108466 17.621722 
L 233.451875 17.584047 
L 236.795284 17.551467 
L 240.138693 17.536595 
L 243.482102 17.545188 
L 246.825511 17.573919 
L 250.16892 17.611665 
L 253.51233 17.643821 
L 256.855739 17.65795 
L 260.199148 17.648587 
L 263.542557 17.619354 
L 266.885966 17.581557 
L 270.229375 17.549818 
L 273.572784 17.536425 
L 276.916193 17.546563 
L 280.259602 17.576307 
L 283.603011 17.614142 
L 286.94642 17.645428 
L 290.28983 17.658065 
L 293.633239 17.647167 
L 296.976648 17.616948 
L 300.320057 17.579094 
L 303.663466 17.548253 
L 307.006875 17.536364 
L 310.350284 17.548029 
L 313.693693 17.578732 
L 317.037102 17.616588 
L 320.380511 17.646949 
L 323.72392 17.658073 
L 327.06733 17.645659 
L 330.410739 17.614506 
L 333.754148 17.576664 
L 337.097557 17.546775 
L 340.440966 17.53641 
L 343.784375 17.549581 
L 347.127784 17.58119 
L 350.471193 17.619 
L 353.814602 17.648382 
L 357.158011 17.657973 
L 360.50142 17.644064 
L 363.84483 17.612034 
L 367.188239 17.574271 
L 370.531648 17.545387 
L 373.875057 17.536564 
L 377.218466 17.551219 
L 380.561875 17.583676 
L 383.905284 17.621373 
L 387.248693 17.649724 
L 390.592102 17.657765 
L 393.935511 17.642387 
L 397.27892 17.609536 
L 400.62233 17.571918 
L 400.62233 17.571918 
" style="fill:none;stroke:#1f77b4;stroke-linecap:square;stroke-width:1.5;"/>
   </g>
   <g id="line2d_28">
    <path clip-path="url(#p31e46c234b)" d="M 66.28142 209.035719 
L 69.62483 211.320427 
L 72.968239 214.003328 
L 76.311648 216.818018 
L 79.655057 219.484838 
L 82.998466 221.739002 
L 86.341875 223.357073 
L 89.685284 224.178996 
L 93.028693 224.123603 
L 96.372102 223.19636 
L 99.715511 221.488853 
L 103.05892 219.170027 
L 106.40233 216.469784 
L 109.745739 213.656271 
L 113.089148 211.009027 
L 116.432557 208.790874 
L 119.775966 207.221648 
L 123.119375 206.456552 
L 126.462784 206.571138 
L 129.806193 207.554096 
L 133.149602 209.308329 
L 136.493011 211.660245 
L 139.83642 214.376631 
L 143.17983 217.187718 
L 146.523239 219.81421 
L 149.866648 221.995371 
L 153.210057 223.515058 
L 156.553466 224.222989 
L 159.896875 224.049261 
L 163.240284 223.011022 
L 166.583693 221.21084 
L 169.927102 218.826876 
L 173.270511 216.095553 
L 176.61392 213.288141 
L 179.95733 210.683566 
L 183.300739 208.540364 
L 186.644148 207.070886 
L 189.987557 206.420433 
L 193.330966 206.653226 
L 196.674375 207.746287 
L 200.017784 209.591623 
L 203.361193 212.006576 
L 206.704602 214.751624 
L 210.048011 217.554114 
L 213.39142 220.135616 
L 216.73483 222.23991 
L 220.078239 223.658529 
L 223.421648 224.251219 
L 226.765057 223.959464 
L 230.108466 222.812063 
L 233.451875 220.922391 
L 236.795284 218.477518 
L 240.138693 215.719965 
L 243.482102 212.923642 
L 246.825511 210.366357 
L 250.16892 208.301903 
L 253.51233 206.934769 
L 256.855739 206.400105 
L 260.199148 206.750692 
L 263.542557 207.951926 
L 266.885966 209.885099 
L 270.229375 212.358807 
L 273.572784 215.12764 
L 276.916193 217.916555 
L 280.259602 220.448486 
L 283.603011 222.472188 
L 286.94642 223.787232 
L 290.28983 224.263636 
L 293.633239 223.854371 
L 296.976648 222.599835 
L 300.320057 220.624018 
L 303.663466 218.122572 
L 307.006875 215.343687 
L 310.350284 212.56342 
L 313.693693 210.057964 
L 317.037102 208.075912 
L 320.380511 206.813537 
L 323.72392 206.395603 
L 327.06733 206.863367 
L 330.410739 208.170649 
L 333.754148 210.188236 
L 337.097557 212.716311 
L 340.440966 215.504012 
L 343.784375 218.274397 
L 347.127784 220.752266 
L 350.471193 222.691793 
L 353.814602 223.90094 
L 357.158011 224.260219 
L 360.50142 223.734166 
L 363.84483 222.374713 
L 367.188239 220.316249 
L 370.531648 217.762668 
L 373.875057 214.967389 
L 377.218466 212.208116 
L 380.561875 209.758933 
L 383.905284 207.86279 
L 387.248693 206.707403 
L 390.592102 206.406937 
L 393.935511 206.991049 
L 397.27892 208.40207 
L 400.62233 210.500499 
L 400.62233 210.500499 
" style="fill:none;stroke:#ff7f0e;stroke-linecap:square;stroke-width:1.5;"/>
   </g>
   <g id="line2d_29">
    <path clip-path="url(#p31e46c234b)" d="M 66.28142 209.035719 
L 69.62483 207.404823 
L 72.968239 206.560109 
L 76.311648 206.585733 
L 79.655057 207.47914 
L 82.998466 209.151329 
L 86.341875 211.436001 
L 89.685284 214.106413 
L 93.028693 216.897968 
L 96.372102 219.534221 
L 99.715511 221.753921 
L 103.05892 223.336718 
L 106.40233 224.125163 
L 109.745739 224.040704 
L 113.089148 223.091759 
L 116.432557 221.372853 
L 119.775966 219.054907 
L 123.119375 216.367939 
L 126.462784 213.578165 
L 129.806193 210.961855 
L 133.149602 208.778309 
L 136.493011 207.244315 
L 139.83642 206.512488 
L 143.17983 206.655745 
L 146.523239 207.659805 
L 149.866648 209.424665 
L 153.210057 211.774855 
L 156.553466 214.477189 
L 159.896875 217.263948 
L 163.240284 219.859155 
L 166.583693 222.005579 
L 169.927102 223.490087 
L 173.270511 224.164971 
L 176.61392 223.96298 
L 179.95733 222.904251 
L 183.300739 221.094224 
L 186.644148 218.712832 
L 189.987557 215.996328 
L 193.330966 213.213818 
L 196.674375 210.640864 
L 200.017784 208.532514 
L 203.361193 207.098152 
L 206.704602 206.480513 
L 210.048011 206.741146 
L 213.39142 207.854071 
L 216.73483 209.708462 
L 220.078239 212.12 
L 223.421648 214.849471 
L 226.765057 217.6265 
L 230.108466 220.176062 
L 233.451875 222.245401 
L 236.795284 223.628979 
L 240.138693 224.189099 
L 243.482102 223.869939 
L 246.825511 222.703313 
L 250.16892 220.805383 
L 253.51233 218.364769 
L 256.855739 215.62354 
L 260.199148 212.853221 
L 263.542557 210.328181 
L 266.885966 208.298772 
L 270.229375 206.966592 
L 273.572784 206.464242 
L 276.916193 206.841785 
L 280.259602 208.061592 
L 283.603011 210.002218 
L 286.94642 212.470826 
L 290.28983 215.222599 
L 293.633239 217.984982 
L 296.976648 220.484381 
L 300.320057 222.47296 
L 303.663466 223.753147 
L 307.006875 224.197506 
L 310.350284 223.761747 
L 313.693693 222.489302 
L 317.037102 220.506843 
L 320.380511 218.011336 
L 323.72392 215.250237 
L 327.06733 212.497013 
L 330.410739 210.024362 
L 333.754148 208.077498 
L 337.097557 206.849871 
L 340.440966 206.463703 
L 343.784375 206.957483 
L 347.127784 208.281998 
L 350.471193 210.30541 
L 353.814602 212.82671 
L 357.158011 215.595913 
L 360.50142 218.338759 
L 363.84483 220.783565 
L 367.188239 222.687851 
L 370.531648 223.86237 
L 373.875057 224.190176 
L 377.218466 223.638596 
L 380.561875 222.262599 
L 383.905284 220.199134 
L 387.248693 217.653158 
L 390.592102 214.877077 
L 393.935511 212.145824 
L 397.27892 209.729946 
L 400.62233 207.869084 
L 400.62233 207.869084 
" style="fill:none;stroke:#2ca02c;stroke-linecap:square;stroke-width:1.5;"/>
   </g>
   <g id="patch_3">
    <path d="M 49.564375 234.6 
L 49.564375 7.2 
" style="fill:none;stroke:#000000;stroke-linecap:square;stroke-linejoin:miter;stroke-width:0.8;"/>
   </g>
   <g id="patch_4">
    <path d="M 417.339375 234.6 
L 417.339375 7.2 
" style="fill:none;stroke:#000000;stroke-linecap:square;stroke-linejoin:miter;stroke-width:0.8;"/>
   </g>
   <g id="patch_5">
    <path d="M 49.564375 234.6 
L 417.339375 234.6 
" style="fill:none;stroke:#000000;stroke-linecap:square;stroke-linejoin:miter;stroke-width:0.8;"/>
   </g>
   <g id="patch_6">
    <path d="M 49.564375 7.2 
L 417.339375 7.2 
" style="fill:none;stroke:#000000;stroke-linecap:square;stroke-linejoin:miter;stroke-width:0.8;"/>
   </g>
   <g id="legend_1">
    <g id="patch_7">
     <path d="M 344.259375 153.824062 
L 407.539375 153.824062 
Q 410.339375 153.824062 410.339375 151.024062 
L 410.339375 90.775937 
Q 410.339375 87.975937 407.539375 87.975937 
L 344.259375 87.975937 
Q 341.459375 87.975937 341.459375 90.775937 
L 341.459375 151.024062 
Q 341.459375 153.824062 344.259375 153.824062 
z
" style="fill:#ffffff;opacity:0.8;stroke:#cccccc;stroke-linejoin:miter;"/>
    </g>
    <g id="line2d_30">
     <path d="M 347.059375 99.31375 
L 375.059375 99.31375 
" style="fill:none;stroke:#1f77b4;stroke-linecap:square;stroke-width:1.5;"/>
    </g>
    <g id="line2d_31"/>
    <g id="text_16">
     <!-- $\omega_1$ -->
     <g transform="translate(386.259375 104.21375)scale(0.14 -0.14)">
      <use transform="translate(0 0.3125)" xlink:href="#DejaVuSans-Oblique-3c9"/>
      <use transform="translate(83.740234 -16.09375)scale(0.7)" xlink:href="#DejaVuSans-31"/>
     </g>
    </g>
    <g id="line2d_32">
     <path d="M 347.059375 119.863125 
L 375.059375 119.863125 
" style="fill:none;stroke:#ff7f0e;stroke-linecap:square;stroke-width:1.5;"/>
    </g>
    <g id="line2d_33"/>
    <g id="text_17">
     <!-- $\omega_2$ -->
     <g transform="translate(386.259375 124.763125)scale(0.14 -0.14)">
      <use transform="translate(0 0.3125)" xlink:href="#DejaVuSans-Oblique-3c9"/>
      <use transform="translate(83.740234 -16.09375)scale(0.7)" xlink:href="#DejaVuSans-32"/>
     </g>
    </g>
    <g id="line2d_34">
     <path d="M 347.059375 140.4125 
L 375.059375 140.4125 
" style="fill:none;stroke:#2ca02c;stroke-linecap:square;stroke-width:1.5;"/>
    </g>
    <g id="line2d_35"/>
    <g id="text_18">
     <!-- $\omega_3$ -->
     <g transform="translate(386.259375 145.3125)scale(0.14 -0.14)">
      <use transform="translate(0 0.3125)" xlink:href="#DejaVuSans-Oblique-3c9"/>
      <use transform="translate(83.740234 -16.09375)scale(0.7)" xlink:href="#DejaVuSans-33"/>
     </g>
    </g>
   </g>
  </g>
 </g>
 <defs>
  <clipPath id="p31e46c234b">
   <rect height="227.4" width="367.775" x="49.564375" y="7.2"/>
  </clipPath>
 </defs>
</svg>
