<?xml version="1.0" encoding="utf-8" standalone="no"?>
<!DOCTYPE svg PUBLIC "-//W3C//DTD SVG 1.1//EN"
  "http://www.w3.org/Graphics/SVG/1.1/DTD/svg11.dtd">
<svg height="279.89875pt" version="1.1" viewBox="0 0 424.539375 279.89875" width="424.539375pt" xmlns="http://www.w3.org/2000/svg" xmlns:xlink="http://www.w3.org/1999/xlink">
 <metadata>
  <rdf:RDF xmlns:cc="http://creativecommons.org/ns#" xmlns:dc="http://purl.org/dc/elements/1.1/" xmlns:rdf="http://www.w3.org/1999/02/22-rdf-syntax-ns#">
   <cc:Work>
    <dc:type rdf:resource="http://purl.org/dc/dcmitype/StillImage"/>
    <dc:date>2021-07-28T14:12:38.992338</dc:date>
    <dc:format>image/svg+xml</dc:format>
    <dc:creator>
     <cc:Agent>
      <dc:title>Matplotlib v3.4.2, https://matplotlib.org/</dc:title>
     </cc:Agent>
    </dc:creator>
   </cc:Work>
  </rdf:RDF>
 </metadata>
 <defs>
  <style type="text/css">*{stroke-linecap:butt;stroke-linejoin:round;}</style>
 </defs>
 <g id="figure_1">
  <g id="patch_1">
   <path d="M -0 279.89875 
L 424.539375 279.89875 
L 424.539375 0 
L -0 0 
z
" style="fill:none;"/>
  </g>
  <g id="axes_1">
   <g id="patch_2">
    <path d="M 49.564375 234.6 
L 417.339375 234.6 
L 417.339375 7.2 
L 49.564375 7.2 
z
" style="fill:#ffffff;"/>
   </g>
   <g id="matplotlib.axis_1">
    <g id="xtick_1">
     <g id="line2d_1">
      <path clip-path="url(#pd709293626)" d="M 66.28142 234.6 
L 66.28142 7.2 
" style="fill:none;stroke:#b0b0b0;stroke-linecap:square;stroke-width:0.8;"/>
     </g>
     <g id="line2d_2">
      <defs>
       <path d="M 0 0 
L 0 3.5 
" id="m21780fa036" style="stroke:#000000;stroke-width:0.8;"/>
      </defs>
      <g>
       <use style="stroke:#000000;stroke-width:0.8;" x="66.28142" xlink:href="#m21780fa036" y="234.6"/>
      </g>
     </g>
     <g id="text_1">
      <!-- 0.0 -->
      <g transform="translate(55.149233 252.237812)scale(0.14 -0.14)">
       <defs>
        <path d="M 2034 4250 
Q 1547 4250 1301 3770 
Q 1056 3291 1056 2328 
Q 1056 1369 1301 889 
Q 1547 409 2034 409 
Q 2525 409 2770 889 
Q 3016 1369 3016 2328 
Q 3016 3291 2770 3770 
Q 2525 4250 2034 4250 
z
M 2034 4750 
Q 2819 4750 3233 4129 
Q 3647 3509 3647 2328 
Q 3647 1150 3233 529 
Q 2819 -91 2034 -91 
Q 1250 -91 836 529 
Q 422 1150 422 2328 
Q 422 3509 836 4129 
Q 1250 4750 2034 4750 
z
" id="DejaVuSans-30" transform="scale(0.015625)"/>
        <path d="M 684 794 
L 1344 794 
L 1344 0 
L 684 0 
L 684 794 
z
" id="DejaVuSans-2e" transform="scale(0.015625)"/>
       </defs>
       <use xlink:href="#DejaVuSans-30"/>
       <use x="63.623047" xlink:href="#DejaVuSans-2e"/>
       <use x="95.410156" xlink:href="#DejaVuSans-30"/>
      </g>
     </g>
    </g>
    <g id="xtick_2">
     <g id="line2d_3">
      <path clip-path="url(#pd709293626)" d="M 131.879107 234.6 
L 131.879107 7.2 
" style="fill:none;stroke:#b0b0b0;stroke-linecap:square;stroke-width:0.8;"/>
     </g>
     <g id="line2d_4">
      <g>
       <use style="stroke:#000000;stroke-width:0.8;" x="131.879107" xlink:href="#m21780fa036" y="234.6"/>
      </g>
     </g>
     <g id="text_2">
      <!-- 0.2 -->
      <g transform="translate(120.746919 252.237812)scale(0.14 -0.14)">
       <defs>
        <path d="M 1228 531 
L 3431 531 
L 3431 0 
L 469 0 
L 469 531 
Q 828 903 1448 1529 
Q 2069 2156 2228 2338 
Q 2531 2678 2651 2914 
Q 2772 3150 2772 3378 
Q 2772 3750 2511 3984 
Q 2250 4219 1831 4219 
Q 1534 4219 1204 4116 
Q 875 4013 500 3803 
L 500 4441 
Q 881 4594 1212 4672 
Q 1544 4750 1819 4750 
Q 2544 4750 2975 4387 
Q 3406 4025 3406 3419 
Q 3406 3131 3298 2873 
Q 3191 2616 2906 2266 
Q 2828 2175 2409 1742 
Q 1991 1309 1228 531 
z
" id="DejaVuSans-32" transform="scale(0.015625)"/>
       </defs>
       <use xlink:href="#DejaVuSans-30"/>
       <use x="63.623047" xlink:href="#DejaVuSans-2e"/>
       <use x="95.410156" xlink:href="#DejaVuSans-32"/>
      </g>
     </g>
    </g>
    <g id="xtick_3">
     <g id="line2d_5">
      <path clip-path="url(#pd709293626)" d="M 197.476793 234.6 
L 197.476793 7.2 
" style="fill:none;stroke:#b0b0b0;stroke-linecap:square;stroke-width:0.8;"/>
     </g>
     <g id="line2d_6">
      <g>
       <use style="stroke:#000000;stroke-width:0.8;" x="197.476793" xlink:href="#m21780fa036" y="234.6"/>
      </g>
     </g>
     <g id="text_3">
      <!-- 0.4 -->
      <g transform="translate(186.344606 252.237812)scale(0.14 -0.14)">
       <defs>
        <path d="M 2419 4116 
L 825 1625 
L 2419 1625 
L 2419 4116 
z
M 2253 4666 
L 3047 4666 
L 3047 1625 
L 3713 1625 
L 3713 1100 
L 3047 1100 
L 3047 0 
L 2419 0 
L 2419 1100 
L 313 1100 
L 313 1709 
L 2253 4666 
z
" id="DejaVuSans-34" transform="scale(0.015625)"/>
       </defs>
       <use xlink:href="#DejaVuSans-30"/>
       <use x="63.623047" xlink:href="#DejaVuSans-2e"/>
       <use x="95.410156" xlink:href="#DejaVuSans-34"/>
      </g>
     </g>
    </g>
    <g id="xtick_4">
     <g id="line2d_7">
      <path clip-path="url(#pd709293626)" d="M 263.07448 234.6 
L 263.07448 7.2 
" style="fill:none;stroke:#b0b0b0;stroke-linecap:square;stroke-width:0.8;"/>
     </g>
     <g id="line2d_8">
      <g>
       <use style="stroke:#000000;stroke-width:0.8;" x="263.07448" xlink:href="#m21780fa036" y="234.6"/>
      </g>
     </g>
     <g id="text_4">
      <!-- 0.6 -->
      <g transform="translate(251.942292 252.237812)scale(0.14 -0.14)">
       <defs>
        <path d="M 2113 2584 
Q 1688 2584 1439 2293 
Q 1191 2003 1191 1497 
Q 1191 994 1439 701 
Q 1688 409 2113 409 
Q 2538 409 2786 701 
Q 3034 994 3034 1497 
Q 3034 2003 2786 2293 
Q 2538 2584 2113 2584 
z
M 3366 4563 
L 3366 3988 
Q 3128 4100 2886 4159 
Q 2644 4219 2406 4219 
Q 1781 4219 1451 3797 
Q 1122 3375 1075 2522 
Q 1259 2794 1537 2939 
Q 1816 3084 2150 3084 
Q 2853 3084 3261 2657 
Q 3669 2231 3669 1497 
Q 3669 778 3244 343 
Q 2819 -91 2113 -91 
Q 1303 -91 875 529 
Q 447 1150 447 2328 
Q 447 3434 972 4092 
Q 1497 4750 2381 4750 
Q 2619 4750 2861 4703 
Q 3103 4656 3366 4563 
z
" id="DejaVuSans-36" transform="scale(0.015625)"/>
       </defs>
       <use xlink:href="#DejaVuSans-30"/>
       <use x="63.623047" xlink:href="#DejaVuSans-2e"/>
       <use x="95.410156" xlink:href="#DejaVuSans-36"/>
      </g>
     </g>
    </g>
    <g id="xtick_5">
     <g id="line2d_9">
      <path clip-path="url(#pd709293626)" d="M 328.672166 234.6 
L 328.672166 7.2 
" style="fill:none;stroke:#b0b0b0;stroke-linecap:square;stroke-width:0.8;"/>
     </g>
     <g id="line2d_10">
      <g>
       <use style="stroke:#000000;stroke-width:0.8;" x="328.672166" xlink:href="#m21780fa036" y="234.6"/>
      </g>
     </g>
     <g id="text_5">
      <!-- 0.8 -->
      <g transform="translate(317.539978 252.237812)scale(0.14 -0.14)">
       <defs>
        <path d="M 2034 2216 
Q 1584 2216 1326 1975 
Q 1069 1734 1069 1313 
Q 1069 891 1326 650 
Q 1584 409 2034 409 
Q 2484 409 2743 651 
Q 3003 894 3003 1313 
Q 3003 1734 2745 1975 
Q 2488 2216 2034 2216 
z
M 1403 2484 
Q 997 2584 770 2862 
Q 544 3141 544 3541 
Q 544 4100 942 4425 
Q 1341 4750 2034 4750 
Q 2731 4750 3128 4425 
Q 3525 4100 3525 3541 
Q 3525 3141 3298 2862 
Q 3072 2584 2669 2484 
Q 3125 2378 3379 2068 
Q 3634 1759 3634 1313 
Q 3634 634 3220 271 
Q 2806 -91 2034 -91 
Q 1263 -91 848 271 
Q 434 634 434 1313 
Q 434 1759 690 2068 
Q 947 2378 1403 2484 
z
M 1172 3481 
Q 1172 3119 1398 2916 
Q 1625 2713 2034 2713 
Q 2441 2713 2670 2916 
Q 2900 3119 2900 3481 
Q 2900 3844 2670 4047 
Q 2441 4250 2034 4250 
Q 1625 4250 1398 4047 
Q 1172 3844 1172 3481 
z
" id="DejaVuSans-38" transform="scale(0.015625)"/>
       </defs>
       <use xlink:href="#DejaVuSans-30"/>
       <use x="63.623047" xlink:href="#DejaVuSans-2e"/>
       <use x="95.410156" xlink:href="#DejaVuSans-38"/>
      </g>
     </g>
    </g>
    <g id="xtick_6">
     <g id="line2d_11">
      <path clip-path="url(#pd709293626)" d="M 394.269852 234.6 
L 394.269852 7.2 
" style="fill:none;stroke:#b0b0b0;stroke-linecap:square;stroke-width:0.8;"/>
     </g>
     <g id="line2d_12">
      <g>
       <use style="stroke:#000000;stroke-width:0.8;" x="394.269852" xlink:href="#m21780fa036" y="234.6"/>
      </g>
     </g>
     <g id="text_6">
      <!-- 1.0 -->
      <g transform="translate(383.137665 252.237812)scale(0.14 -0.14)">
       <defs>
        <path d="M 794 531 
L 1825 531 
L 1825 4091 
L 703 3866 
L 703 4441 
L 1819 4666 
L 2450 4666 
L 2450 531 
L 3481 531 
L 3481 0 
L 794 0 
L 794 531 
z
" id="DejaVuSans-31" transform="scale(0.015625)"/>
       </defs>
       <use xlink:href="#DejaVuSans-31"/>
       <use x="63.623047" xlink:href="#DejaVuSans-2e"/>
       <use x="95.410156" xlink:href="#DejaVuSans-30"/>
      </g>
     </g>
    </g>
    <g id="text_7">
     <!-- $t$ -->
     <g transform="translate(230.651875 269.787187)scale(0.14 -0.14)">
      <defs>
       <path d="M 2706 3500 
L 2619 3053 
L 1472 3053 
L 1100 1153 
Q 1081 1047 1072 975 
Q 1063 903 1063 863 
Q 1063 663 1183 572 
Q 1303 481 1569 481 
L 2150 481 
L 2053 0 
L 1503 0 
Q 991 0 739 200 
Q 488 400 488 806 
Q 488 878 497 964 
Q 506 1050 525 1153 
L 897 3053 
L 409 3053 
L 500 3500 
L 978 3500 
L 1172 4494 
L 1747 4494 
L 1556 3500 
L 2706 3500 
z
" id="DejaVuSans-Oblique-74" transform="scale(0.015625)"/>
      </defs>
      <use transform="translate(0 0.78125)" xlink:href="#DejaVuSans-Oblique-74"/>
     </g>
    </g>
   </g>
   <g id="matplotlib.axis_2">
    <g id="ytick_1">
     <g id="line2d_13">
      <path clip-path="url(#pd709293626)" d="M 49.564375 214.069021 
L 417.339375 214.069021 
" style="fill:none;stroke:#b0b0b0;stroke-linecap:square;stroke-width:0.8;"/>
     </g>
     <g id="line2d_14">
      <defs>
       <path d="M 0 0 
L -3.5 0 
" id="md227a50e49" style="stroke:#000000;stroke-width:0.8;"/>
      </defs>
      <g>
       <use style="stroke:#000000;stroke-width:0.8;" x="49.564375" xlink:href="#md227a50e49" y="214.069021"/>
      </g>
     </g>
     <g id="text_8">
      <!-- 0 -->
      <g transform="translate(33.656875 219.387928)scale(0.14 -0.14)">
       <use xlink:href="#DejaVuSans-30"/>
      </g>
     </g>
    </g>
    <g id="ytick_2">
     <g id="line2d_15">
      <path clip-path="url(#pd709293626)" d="M 49.564375 182.805466 
L 417.339375 182.805466 
" style="fill:none;stroke:#b0b0b0;stroke-linecap:square;stroke-width:0.8;"/>
     </g>
     <g id="line2d_16">
      <g>
       <use style="stroke:#000000;stroke-width:0.8;" x="49.564375" xlink:href="#md227a50e49" y="182.805466"/>
      </g>
     </g>
     <g id="text_9">
      <!-- 5 -->
      <g transform="translate(33.656875 188.124372)scale(0.14 -0.14)">
       <defs>
        <path d="M 691 4666 
L 3169 4666 
L 3169 4134 
L 1269 4134 
L 1269 2991 
Q 1406 3038 1543 3061 
Q 1681 3084 1819 3084 
Q 2600 3084 3056 2656 
Q 3513 2228 3513 1497 
Q 3513 744 3044 326 
Q 2575 -91 1722 -91 
Q 1428 -91 1123 -41 
Q 819 9 494 109 
L 494 744 
Q 775 591 1075 516 
Q 1375 441 1709 441 
Q 2250 441 2565 725 
Q 2881 1009 2881 1497 
Q 2881 1984 2565 2268 
Q 2250 2553 1709 2553 
Q 1456 2553 1204 2497 
Q 953 2441 691 2322 
L 691 4666 
z
" id="DejaVuSans-35" transform="scale(0.015625)"/>
       </defs>
       <use xlink:href="#DejaVuSans-35"/>
      </g>
     </g>
    </g>
    <g id="ytick_3">
     <g id="line2d_17">
      <path clip-path="url(#pd709293626)" d="M 49.564375 151.54191 
L 417.339375 151.54191 
" style="fill:none;stroke:#b0b0b0;stroke-linecap:square;stroke-width:0.8;"/>
     </g>
     <g id="line2d_18">
      <g>
       <use style="stroke:#000000;stroke-width:0.8;" x="49.564375" xlink:href="#md227a50e49" y="151.54191"/>
      </g>
     </g>
     <g id="text_10">
      <!-- 10 -->
      <g transform="translate(24.749375 156.860816)scale(0.14 -0.14)">
       <use xlink:href="#DejaVuSans-31"/>
       <use x="63.623047" xlink:href="#DejaVuSans-30"/>
      </g>
     </g>
    </g>
    <g id="ytick_4">
     <g id="line2d_19">
      <path clip-path="url(#pd709293626)" d="M 49.564375 120.278354 
L 417.339375 120.278354 
" style="fill:none;stroke:#b0b0b0;stroke-linecap:square;stroke-width:0.8;"/>
     </g>
     <g id="line2d_20">
      <g>
       <use style="stroke:#000000;stroke-width:0.8;" x="49.564375" xlink:href="#md227a50e49" y="120.278354"/>
      </g>
     </g>
     <g id="text_11">
      <!-- 15 -->
      <g transform="translate(24.749375 125.59726)scale(0.14 -0.14)">
       <use xlink:href="#DejaVuSans-31"/>
       <use x="63.623047" xlink:href="#DejaVuSans-35"/>
      </g>
     </g>
    </g>
    <g id="ytick_5">
     <g id="line2d_21">
      <path clip-path="url(#pd709293626)" d="M 49.564375 89.014798 
L 417.339375 89.014798 
" style="fill:none;stroke:#b0b0b0;stroke-linecap:square;stroke-width:0.8;"/>
     </g>
     <g id="line2d_22">
      <g>
       <use style="stroke:#000000;stroke-width:0.8;" x="49.564375" xlink:href="#md227a50e49" y="89.014798"/>
      </g>
     </g>
     <g id="text_12">
      <!-- 20 -->
      <g transform="translate(24.749375 94.333704)scale(0.14 -0.14)">
       <use xlink:href="#DejaVuSans-32"/>
       <use x="63.623047" xlink:href="#DejaVuSans-30"/>
      </g>
     </g>
    </g>
    <g id="ytick_6">
     <g id="line2d_23">
      <path clip-path="url(#pd709293626)" d="M 49.564375 57.751242 
L 417.339375 57.751242 
" style="fill:none;stroke:#b0b0b0;stroke-linecap:square;stroke-width:0.8;"/>
     </g>
     <g id="line2d_24">
      <g>
       <use style="stroke:#000000;stroke-width:0.8;" x="49.564375" xlink:href="#md227a50e49" y="57.751242"/>
      </g>
     </g>
     <g id="text_13">
      <!-- 25 -->
      <g transform="translate(24.749375 63.070148)scale(0.14 -0.14)">
       <use xlink:href="#DejaVuSans-32"/>
       <use x="63.623047" xlink:href="#DejaVuSans-35"/>
      </g>
     </g>
    </g>
    <g id="ytick_7">
     <g id="line2d_25">
      <path clip-path="url(#pd709293626)" d="M 49.564375 26.487686 
L 417.339375 26.487686 
" style="fill:none;stroke:#b0b0b0;stroke-linecap:square;stroke-width:0.8;"/>
     </g>
     <g id="line2d_26">
      <g>
       <use style="stroke:#000000;stroke-width:0.8;" x="49.564375" xlink:href="#md227a50e49" y="26.487686"/>
      </g>
     </g>
     <g id="text_14">
      <!-- 30 -->
      <g transform="translate(24.749375 31.806592)scale(0.14 -0.14)">
       <defs>
        <path d="M 2597 2516 
Q 3050 2419 3304 2112 
Q 3559 1806 3559 1356 
Q 3559 666 3084 287 
Q 2609 -91 1734 -91 
Q 1441 -91 1130 -33 
Q 819 25 488 141 
L 488 750 
Q 750 597 1062 519 
Q 1375 441 1716 441 
Q 2309 441 2620 675 
Q 2931 909 2931 1356 
Q 2931 1769 2642 2001 
Q 2353 2234 1838 2234 
L 1294 2234 
L 1294 2753 
L 1863 2753 
Q 2328 2753 2575 2939 
Q 2822 3125 2822 3475 
Q 2822 3834 2567 4026 
Q 2313 4219 1838 4219 
Q 1578 4219 1281 4162 
Q 984 4106 628 3988 
L 628 4550 
Q 988 4650 1302 4700 
Q 1616 4750 1894 4750 
Q 2613 4750 3031 4423 
Q 3450 4097 3450 3541 
Q 3450 3153 3228 2886 
Q 3006 2619 2597 2516 
z
" id="DejaVuSans-33" transform="scale(0.015625)"/>
       </defs>
       <use xlink:href="#DejaVuSans-33"/>
       <use x="63.623047" xlink:href="#DejaVuSans-30"/>
      </g>
     </g>
    </g>
    <g id="text_15">
     <!-- $\omega$ -->
     <g transform="translate(17.837813 126.78)rotate(-90)scale(0.14 -0.14)">
      <defs>
       <path d="M 1369 -91 
Q 72 -91 434 1766 
Q 575 2500 1256 3500 
L 1875 3500 
Q 1231 2500 1088 1750 
Q 819 397 1519 397 
Q 2166 397 2478 2078 
L 3009 2078 
Q 2669 388 3316 397 
Q 4013 403 4275 1750 
Q 4419 2500 4169 3500 
L 4788 3500 
Q 5075 2500 4934 1766 
Q 4578 -94 3278 -91 
Q 2428 -88 2503 844 
Q 2194 -91 1369 -91 
z
" id="DejaVuSans-Oblique-3c9" transform="scale(0.015625)"/>
      </defs>
      <use transform="translate(0 0.3125)" xlink:href="#DejaVuSans-Oblique-3c9"/>
     </g>
    </g>
   </g>
   <g id="line2d_27">
    <path clip-path="url(#pd709293626)" d="M 66.28142 207.81631 
L 69.62483 206.817422 
L 72.968239 206.260321 
L 76.311648 206.179269 
L 79.655057 206.579257 
L 82.998466 207.43567 
L 86.341875 208.695924 
L 89.685284 210.282893 
L 93.028693 212.09981 
L 96.372102 214.036224 
L 99.715511 215.974627 
L 103.05892 217.797395 
L 106.40233 219.393731 
L 109.745739 220.666306 
L 113.089148 221.537252 
L 116.432557 221.953097 
L 119.775966 221.888251 
L 123.119375 221.346708 
L 126.462784 220.361776 
L 129.806193 218.993875 
L 133.149602 217.326626 
L 136.493011 215.461589 
L 139.83642 213.512061 
L 143.17983 211.596322 
L 146.523239 209.830659 
L 149.866648 208.322487 
L 153.210057 207.163855 
L 156.553466 206.425737 
L 159.896875 206.153488 
L 163.240284 206.363867 
L 166.583693 207.043921 
L 169.927102 208.15185 
L 173.270511 209.619757 
L 176.61392 211.358007 
L 179.95733 213.260814 
L 183.300739 215.212652 
L 186.644148 217.095106 
L 189.987557 218.79385 
L 193.330966 220.205449 
L 196.674375 221.243652 
L 200.017784 221.844796 
L 203.361193 221.971919 
L 206.704602 221.617192 
L 210.048011 220.802447 
L 213.39142 219.577725 
L 216.73483 218.018002 
L 220.078239 216.218416 
L 223.421648 214.288391 
L 226.765057 212.345059 
L 230.108466 210.506334 
L 233.451875 208.883957 
L 236.795284 207.576813 
L 240.138693 206.664857 
L 243.482102 206.204064 
L 246.825511 206.222783 
L 250.16892 206.719864 
L 253.51233 207.664725 
L 256.855739 208.999388 
L 260.199148 210.642235 
L 263.542557 212.493162 
L 266.885966 214.439705 
L 270.229375 216.36376 
L 273.572784 218.148548 
L 276.916193 219.685523 
L 280.259602 220.880908 
L 283.603011 221.661502 
L 286.94642 221.979353 
L 290.28983 221.814896 
L 293.633239 221.178258 
L 296.976648 220.108578 
L 300.320057 218.671432 
L 303.663466 216.954607 
L 307.006875 215.062613 
L 310.350284 213.11034 
L 313.693693 211.216229 
L 317.037102 209.495293 
L 320.380511 208.052288 
L 323.72392 206.975352 
L 327.06733 206.330502 
L 330.410739 206.157382 
L 333.754148 206.466649 
L 337.097557 207.239268 
L 340.440966 208.427773 
L 343.784375 209.959381 
L 347.127784 211.740637 
L 350.471193 213.663202 
L 353.814602 215.610387 
L 357.158011 217.464048 
L 360.50142 219.111561 
L 363.84483 220.452545 
L 367.188239 221.404999 
L 370.531648 221.910481 
L 373.875057 221.937897 
L 377.218466 221.485559 
L 380.561875 220.581298 
L 383.905284 219.280619 
L 387.248693 217.663087 
L 390.592102 215.827299 
L 393.935511 213.88482 
L 397.27892 211.953516 
L 400.62233 210.150593 
L 400.62233 210.150593 
" style="fill:none;stroke:#1f77b4;stroke-linecap:square;stroke-width:1.5;"/>
   </g>
   <g id="line2d_28">
    <path clip-path="url(#pd709293626)" d="M 66.28142 207.81631 
L 69.62483 209.979234 
L 72.968239 212.391949 
L 76.311648 214.907163 
L 79.655057 217.371147 
L 82.998466 219.633389 
L 86.341875 221.556011 
L 89.685284 223.022225 
L 93.028693 223.943292 
L 96.372102 224.263636 
L 99.715511 223.963965 
L 103.05892 223.062327 
L 106.40233 221.613118 
L 109.745739 219.704039 
L 113.089148 217.451043 
L 116.432557 214.99143 
L 119.775966 212.475436 
L 123.119375 210.056841 
L 126.462784 207.883305 
L 129.806193 206.087179 
L 133.149602 204.777445 
L 136.493011 204.033293 
L 139.83642 203.899588 
L 143.17983 204.384384 
L 146.523239 205.458471 
L 149.866648 207.056996 
L 153.210057 209.083119 
L 156.553466 211.413644 
L 159.896875 213.906428 
L 163.240284 216.40915 
L 166.583693 218.768866 
L 169.927102 220.841604 
L 173.270511 222.50128 
L 176.61392 223.6473 
L 179.95733 224.210442 
L 183.300739 224.156771 
L 186.644148 223.489518 
L 189.987557 222.248906 
L 193.330966 220.50991 
L 196.674375 218.377998 
L 200.017784 215.98293 
L 203.361193 213.470894 
L 206.704602 210.995418 
L 210.048011 208.707735 
L 213.39142 206.747312 
L 216.73483 205.233276 
L 220.078239 204.25729 
L 223.421648 203.878257 
L 226.765057 204.119008 
L 230.108466 204.965044 
L 233.451875 206.365335 
L 236.795284 208.235168 
L 240.138693 210.461015 
L 243.482102 212.907268 
L 246.825511 215.424529 
L 250.16892 217.85894 
L 253.51233 220.061848 
L 256.855739 221.899073 
L 260.199148 223.259099 
L 263.542557 224.059672 
L 266.885966 224.252511 
L 270.229375 223.826004 
L 273.572784 222.805845 
L 276.916193 221.253613 
L 280.259602 219.263313 
L 283.603011 216.955921 
L 286.94642 214.472133 
L 290.28983 211.963705 
L 293.633239 209.583941 
L 296.976648 207.478067 
L 300.320057 205.774225 
L 303.663466 204.575722 
L 307.006875 203.954971 
L 310.350284 203.949386 
L 313.693693 204.559302 
L 317.037102 205.747961 
L 320.380511 207.443547 
L 323.72392 209.543262 
L 327.06733 211.919346 
L 330.410739 214.426802 
L 333.754148 216.912389 
L 337.097557 219.224238 
L 340.440966 221.221372 
L 343.784375 222.782394 
L 347.127784 223.812762 
L 350.471193 224.250274 
L 353.814602 224.068575 
L 357.158011 223.278607 
L 360.50142 221.928008 
L 363.84483 220.098457 
L 367.188239 217.900998 
L 370.531648 215.469471 
L 373.875057 212.952348 
L 377.218466 210.503479 
L 380.561875 208.272425 
L 383.905284 206.39512 
L 387.248693 204.985552 
L 390.592102 204.129001 
L 393.935511 203.877133 
L 397.27892 204.245117 
L 400.62233 205.210787 
L 400.62233 205.210787 
" style="fill:none;stroke:#ff7f0e;stroke-linecap:square;stroke-width:1.5;"/>
   </g>
   <g id="line2d_29">
    <path clip-path="url(#pd709293626)" d="M 66.28142 17.634306 
L 69.62483 17.578222 
L 72.968239 17.543346 
L 76.311648 17.538058 
L 79.655057 17.563627 
L 82.998466 17.613911 
L 86.341875 17.676834 
L 89.685284 17.737299 
L 93.028693 17.78081 
L 96.372102 17.796943 
L 99.715511 17.781835 
L 103.05892 17.739105 
L 106.40233 17.678987 
L 109.745739 17.615895 
L 113.089148 17.564966 
L 116.432557 17.53843 
L 119.775966 17.542662 
L 123.119375 17.576646 
L 126.462784 17.632217 
L 129.806193 17.696034 
L 133.149602 17.752788 
L 136.493011 17.788877 
L 139.83642 17.795656 
L 143.17983 17.771503 
L 146.523239 17.722201 
L 149.866648 17.659564 
L 153.210057 17.59861 
L 156.553466 17.55397 
L 159.896875 17.536364 
L 163.240284 17.550022 
L 166.583693 17.591664 
L 169.927102 17.651286 
L 173.270511 17.714579 
L 176.61392 17.766362 
L 179.95733 17.794229 
L 183.300739 17.791504 
L 186.644148 17.758841 
L 189.987557 17.704062 
L 193.330966 17.640296 
L 196.674375 17.582837 
L 200.017784 17.545478 
L 203.361193 17.537194 
L 206.704602 17.559975 
L 210.048011 17.608348 
L 213.39142 17.670696 
L 216.73483 17.732058 
L 220.078239 17.777721 
L 223.421648 17.796747 
L 226.765057 17.784578 
L 230.108466 17.74413 
L 233.451875 17.685091 
L 236.795284 17.621613 
L 240.138693 17.568926 
L 243.482102 17.53968 
L 246.825511 17.540903 
L 250.16892 17.572299 
L 253.51233 17.626327 
L 256.855739 17.690014 
L 260.199148 17.748082 
L 263.542557 17.786612 
L 266.885966 17.796375 
L 270.229375 17.775033 
L 273.572784 17.727697 
L 276.916193 17.665708 
L 280.259602 17.603929 
L 283.603011 17.557187 
L 286.94642 17.536705 
L 290.28983 17.547407 
L 293.633239 17.58672 
L 296.976648 17.6452 
L 300.320057 17.708811 
L 303.663466 17.762296 
L 307.006875 17.792838 
L 310.350284 17.793122 
L 313.693693 17.763079 
L 317.037102 17.709906 
L 320.380511 17.646345 
L 323.72392 17.587639 
L 327.06733 17.54788 
L 330.410739 17.536619 
L 333.754148 17.556561 
L 337.097557 17.602916 
L 340.440966 17.664549 
L 343.784375 17.726671 
L 347.127784 17.774385 
L 350.471193 17.796261 
L 353.814602 17.787059 
L 357.158011 17.748983 
L 360.50142 17.691153 
L 363.84483 17.627431 
L 367.188239 17.573103 
L 370.531648 17.541214 
L 373.875057 17.539424 
L 377.218466 17.568163 
L 380.561875 17.620527 
L 383.905284 17.683943 
L 387.248693 17.743195 
L 390.592102 17.78408 
L 393.935511 17.796805 
L 397.27892 17.778322 
L 400.62233 17.733057 
L 400.62233 17.733057 
" style="fill:none;stroke:#2ca02c;stroke-linecap:square;stroke-width:1.5;"/>
   </g>
   <g id="patch_3">
    <path d="M 49.564375 234.6 
L 49.564375 7.2 
" style="fill:none;stroke:#000000;stroke-linecap:square;stroke-linejoin:miter;stroke-width:0.8;"/>
   </g>
   <g id="patch_4">
    <path d="M 417.339375 234.6 
L 417.339375 7.2 
" style="fill:none;stroke:#000000;stroke-linecap:square;stroke-linejoin:miter;stroke-width:0.8;"/>
   </g>
   <g id="patch_5">
    <path d="M 49.564375 234.6 
L 417.339375 234.6 
" style="fill:none;stroke:#000000;stroke-linecap:square;stroke-linejoin:miter;stroke-width:0.8;"/>
   </g>
   <g id="patch_6">
    <path d="M 49.564375 7.2 
L 417.339375 7.2 
" style="fill:none;stroke:#000000;stroke-linecap:square;stroke-linejoin:miter;stroke-width:0.8;"/>
   </g>
   <g id="legend_1">
    <g id="patch_7">
     <path d="M 344.259375 153.824062 
L 407.539375 153.824062 
Q 410.339375 153.824062 410.339375 151.024062 
L 410.339375 90.775937 
Q 410.339375 87.975937 407.539375 87.975937 
L 344.259375 87.975937 
Q 341.459375 87.975937 341.459375 90.775937 
L 341.459375 151.024062 
Q 341.459375 153.824062 344.259375 153.824062 
z
" style="fill:#ffffff;opacity:0.8;stroke:#cccccc;stroke-linejoin:miter;"/>
    </g>
    <g id="line2d_30">
     <path d="M 347.059375 99.31375 
L 375.059375 99.31375 
" style="fill:none;stroke:#1f77b4;stroke-linecap:square;stroke-width:1.5;"/>
    </g>
    <g id="line2d_31"/>
    <g id="text_16">
     <!-- $\omega_1$ -->
     <g transform="translate(386.259375 104.21375)scale(0.14 -0.14)">
      <use transform="translate(0 0.3125)" xlink:href="#DejaVuSans-Oblique-3c9"/>
      <use transform="translate(83.740234 -16.09375)scale(0.7)" xlink:href="#DejaVuSans-31"/>
     </g>
    </g>
    <g id="line2d_32">
     <path d="M 347.059375 119.863125 
L 375.059375 119.863125 
" style="fill:none;stroke:#ff7f0e;stroke-linecap:square;stroke-width:1.5;"/>
    </g>
    <g id="line2d_33"/>
    <g id="text_17">
     <!-- $\omega_2$ -->
     <g transform="translate(386.259375 124.763125)scale(0.14 -0.14)">
      <use transform="translate(0 0.3125)" xlink:href="#DejaVuSans-Oblique-3c9"/>
      <use transform="translate(83.740234 -16.09375)scale(0.7)" xlink:href="#DejaVuSans-32"/>
     </g>
    </g>
    <g id="line2d_34">
     <path d="M 347.059375 140.4125 
L 375.059375 140.4125 
" style="fill:none;stroke:#2ca02c;stroke-linecap:square;stroke-width:1.5;"/>
    </g>
    <g id="line2d_35"/>
    <g id="text_18">
     <!-- $\omega_3$ -->
     <g transform="translate(386.259375 145.3125)scale(0.14 -0.14)">
      <use transform="translate(0 0.3125)" xlink:href="#DejaVuSans-Oblique-3c9"/>
      <use transform="translate(83.740234 -16.09375)scale(0.7)" xlink:href="#DejaVuSans-33"/>
     </g>
    </g>
   </g>
  </g>
 </g>
 <defs>
  <clipPath id="pd709293626">
   <rect height="227.4" width="367.775" x="49.564375" y="7.2"/>
  </clipPath>
 </defs>
</svg>
