<?xml version="1.0" encoding="utf-8" standalone="no"?>
<!DOCTYPE svg PUBLIC "-//W3C//DTD SVG 1.1//EN"
  "http://www.w3.org/Graphics/SVG/1.1/DTD/svg11.dtd">
<svg height="279.89875pt" version="1.1" viewBox="0 0 424.520937 279.89875" width="424.520937pt" xmlns="http://www.w3.org/2000/svg" xmlns:xlink="http://www.w3.org/1999/xlink">
 <metadata>
  <rdf:RDF xmlns:cc="http://creativecommons.org/ns#" xmlns:dc="http://purl.org/dc/elements/1.1/" xmlns:rdf="http://www.w3.org/1999/02/22-rdf-syntax-ns#">
   <cc:Work>
    <dc:type rdf:resource="http://purl.org/dc/dcmitype/StillImage"/>
    <dc:date>2021-07-28T14:28:07.488302</dc:date>
    <dc:format>image/svg+xml</dc:format>
    <dc:creator>
     <cc:Agent>
      <dc:title>Matplotlib v3.4.2, https://matplotlib.org/</dc:title>
     </cc:Agent>
    </dc:creator>
   </cc:Work>
  </rdf:RDF>
 </metadata>
 <defs>
  <style type="text/css">*{stroke-linecap:butt;stroke-linejoin:round;}</style>
 </defs>
 <g id="figure_1">
  <g id="patch_1">
   <path d="M 0 279.89875 
L 424.520937 279.89875 
L 424.520937 0 
L 0 0 
z
" style="fill:none;"/>
  </g>
  <g id="axes_1">
   <g id="patch_2">
    <path d="M 61.295938 234.6 
L 417.320938 234.6 
L 417.320938 7.2 
L 61.295938 7.2 
z
" style="fill:#ffffff;"/>
   </g>
   <g id="matplotlib.axis_1">
    <g id="xtick_1">
     <g id="line2d_1">
      <path clip-path="url(#pcf1d5fca28)" d="M 77.478892 234.6 
L 77.478892 7.2 
" style="fill:none;stroke:#b0b0b0;stroke-linecap:square;stroke-width:0.8;"/>
     </g>
     <g id="line2d_2">
      <defs>
       <path d="M 0 0 
L 0 3.5 
" id="m40043620fd" style="stroke:#000000;stroke-width:0.8;"/>
      </defs>
      <g>
       <use style="stroke:#000000;stroke-width:0.8;" x="77.478892" xlink:href="#m40043620fd" y="234.6"/>
      </g>
     </g>
     <g id="text_1">
      <!-- 0.0 -->
      <g transform="translate(66.346705 252.237812)scale(0.14 -0.14)">
       <defs>
        <path d="M 2034 4250 
Q 1547 4250 1301 3770 
Q 1056 3291 1056 2328 
Q 1056 1369 1301 889 
Q 1547 409 2034 409 
Q 2525 409 2770 889 
Q 3016 1369 3016 2328 
Q 3016 3291 2770 3770 
Q 2525 4250 2034 4250 
z
M 2034 4750 
Q 2819 4750 3233 4129 
Q 3647 3509 3647 2328 
Q 3647 1150 3233 529 
Q 2819 -91 2034 -91 
Q 1250 -91 836 529 
Q 422 1150 422 2328 
Q 422 3509 836 4129 
Q 1250 4750 2034 4750 
z
" id="DejaVuSans-30" transform="scale(0.015625)"/>
        <path d="M 684 794 
L 1344 794 
L 1344 0 
L 684 0 
L 684 794 
z
" id="DejaVuSans-2e" transform="scale(0.015625)"/>
       </defs>
       <use xlink:href="#DejaVuSans-30"/>
       <use x="63.623047" xlink:href="#DejaVuSans-2e"/>
       <use x="95.410156" xlink:href="#DejaVuSans-30"/>
      </g>
     </g>
    </g>
    <g id="xtick_2">
     <g id="line2d_3">
      <path clip-path="url(#pcf1d5fca28)" d="M 140.980806 234.6 
L 140.980806 7.2 
" style="fill:none;stroke:#b0b0b0;stroke-linecap:square;stroke-width:0.8;"/>
     </g>
     <g id="line2d_4">
      <g>
       <use style="stroke:#000000;stroke-width:0.8;" x="140.980806" xlink:href="#m40043620fd" y="234.6"/>
      </g>
     </g>
     <g id="text_2">
      <!-- 0.2 -->
      <g transform="translate(129.848618 252.237812)scale(0.14 -0.14)">
       <defs>
        <path d="M 1228 531 
L 3431 531 
L 3431 0 
L 469 0 
L 469 531 
Q 828 903 1448 1529 
Q 2069 2156 2228 2338 
Q 2531 2678 2651 2914 
Q 2772 3150 2772 3378 
Q 2772 3750 2511 3984 
Q 2250 4219 1831 4219 
Q 1534 4219 1204 4116 
Q 875 4013 500 3803 
L 500 4441 
Q 881 4594 1212 4672 
Q 1544 4750 1819 4750 
Q 2544 4750 2975 4387 
Q 3406 4025 3406 3419 
Q 3406 3131 3298 2873 
Q 3191 2616 2906 2266 
Q 2828 2175 2409 1742 
Q 1991 1309 1228 531 
z
" id="DejaVuSans-32" transform="scale(0.015625)"/>
       </defs>
       <use xlink:href="#DejaVuSans-30"/>
       <use x="63.623047" xlink:href="#DejaVuSans-2e"/>
       <use x="95.410156" xlink:href="#DejaVuSans-32"/>
      </g>
     </g>
    </g>
    <g id="xtick_3">
     <g id="line2d_5">
      <path clip-path="url(#pcf1d5fca28)" d="M 204.482719 234.6 
L 204.482719 7.2 
" style="fill:none;stroke:#b0b0b0;stroke-linecap:square;stroke-width:0.8;"/>
     </g>
     <g id="line2d_6">
      <g>
       <use style="stroke:#000000;stroke-width:0.8;" x="204.482719" xlink:href="#m40043620fd" y="234.6"/>
      </g>
     </g>
     <g id="text_3">
      <!-- 0.4 -->
      <g transform="translate(193.350532 252.237812)scale(0.14 -0.14)">
       <defs>
        <path d="M 2419 4116 
L 825 1625 
L 2419 1625 
L 2419 4116 
z
M 2253 4666 
L 3047 4666 
L 3047 1625 
L 3713 1625 
L 3713 1100 
L 3047 1100 
L 3047 0 
L 2419 0 
L 2419 1100 
L 313 1100 
L 313 1709 
L 2253 4666 
z
" id="DejaVuSans-34" transform="scale(0.015625)"/>
       </defs>
       <use xlink:href="#DejaVuSans-30"/>
       <use x="63.623047" xlink:href="#DejaVuSans-2e"/>
       <use x="95.410156" xlink:href="#DejaVuSans-34"/>
      </g>
     </g>
    </g>
    <g id="xtick_4">
     <g id="line2d_7">
      <path clip-path="url(#pcf1d5fca28)" d="M 267.984633 234.6 
L 267.984633 7.2 
" style="fill:none;stroke:#b0b0b0;stroke-linecap:square;stroke-width:0.8;"/>
     </g>
     <g id="line2d_8">
      <g>
       <use style="stroke:#000000;stroke-width:0.8;" x="267.984633" xlink:href="#m40043620fd" y="234.6"/>
      </g>
     </g>
     <g id="text_4">
      <!-- 0.6 -->
      <g transform="translate(256.852445 252.237812)scale(0.14 -0.14)">
       <defs>
        <path d="M 2113 2584 
Q 1688 2584 1439 2293 
Q 1191 2003 1191 1497 
Q 1191 994 1439 701 
Q 1688 409 2113 409 
Q 2538 409 2786 701 
Q 3034 994 3034 1497 
Q 3034 2003 2786 2293 
Q 2538 2584 2113 2584 
z
M 3366 4563 
L 3366 3988 
Q 3128 4100 2886 4159 
Q 2644 4219 2406 4219 
Q 1781 4219 1451 3797 
Q 1122 3375 1075 2522 
Q 1259 2794 1537 2939 
Q 1816 3084 2150 3084 
Q 2853 3084 3261 2657 
Q 3669 2231 3669 1497 
Q 3669 778 3244 343 
Q 2819 -91 2113 -91 
Q 1303 -91 875 529 
Q 447 1150 447 2328 
Q 447 3434 972 4092 
Q 1497 4750 2381 4750 
Q 2619 4750 2861 4703 
Q 3103 4656 3366 4563 
z
" id="DejaVuSans-36" transform="scale(0.015625)"/>
       </defs>
       <use xlink:href="#DejaVuSans-30"/>
       <use x="63.623047" xlink:href="#DejaVuSans-2e"/>
       <use x="95.410156" xlink:href="#DejaVuSans-36"/>
      </g>
     </g>
    </g>
    <g id="xtick_5">
     <g id="line2d_9">
      <path clip-path="url(#pcf1d5fca28)" d="M 331.486547 234.6 
L 331.486547 7.2 
" style="fill:none;stroke:#b0b0b0;stroke-linecap:square;stroke-width:0.8;"/>
     </g>
     <g id="line2d_10">
      <g>
       <use style="stroke:#000000;stroke-width:0.8;" x="331.486547" xlink:href="#m40043620fd" y="234.6"/>
      </g>
     </g>
     <g id="text_5">
      <!-- 0.8 -->
      <g transform="translate(320.354359 252.237812)scale(0.14 -0.14)">
       <defs>
        <path d="M 2034 2216 
Q 1584 2216 1326 1975 
Q 1069 1734 1069 1313 
Q 1069 891 1326 650 
Q 1584 409 2034 409 
Q 2484 409 2743 651 
Q 3003 894 3003 1313 
Q 3003 1734 2745 1975 
Q 2488 2216 2034 2216 
z
M 1403 2484 
Q 997 2584 770 2862 
Q 544 3141 544 3541 
Q 544 4100 942 4425 
Q 1341 4750 2034 4750 
Q 2731 4750 3128 4425 
Q 3525 4100 3525 3541 
Q 3525 3141 3298 2862 
Q 3072 2584 2669 2484 
Q 3125 2378 3379 2068 
Q 3634 1759 3634 1313 
Q 3634 634 3220 271 
Q 2806 -91 2034 -91 
Q 1263 -91 848 271 
Q 434 634 434 1313 
Q 434 1759 690 2068 
Q 947 2378 1403 2484 
z
M 1172 3481 
Q 1172 3119 1398 2916 
Q 1625 2713 2034 2713 
Q 2441 2713 2670 2916 
Q 2900 3119 2900 3481 
Q 2900 3844 2670 4047 
Q 2441 4250 2034 4250 
Q 1625 4250 1398 4047 
Q 1172 3844 1172 3481 
z
" id="DejaVuSans-38" transform="scale(0.015625)"/>
       </defs>
       <use xlink:href="#DejaVuSans-30"/>
       <use x="63.623047" xlink:href="#DejaVuSans-2e"/>
       <use x="95.410156" xlink:href="#DejaVuSans-38"/>
      </g>
     </g>
    </g>
    <g id="xtick_6">
     <g id="line2d_11">
      <path clip-path="url(#pcf1d5fca28)" d="M 394.98846 234.6 
L 394.98846 7.2 
" style="fill:none;stroke:#b0b0b0;stroke-linecap:square;stroke-width:0.8;"/>
     </g>
     <g id="line2d_12">
      <g>
       <use style="stroke:#000000;stroke-width:0.8;" x="394.98846" xlink:href="#m40043620fd" y="234.6"/>
      </g>
     </g>
     <g id="text_6">
      <!-- 1.0 -->
      <g transform="translate(383.856273 252.237812)scale(0.14 -0.14)">
       <defs>
        <path d="M 794 531 
L 1825 531 
L 1825 4091 
L 703 3866 
L 703 4441 
L 1819 4666 
L 2450 4666 
L 2450 531 
L 3481 531 
L 3481 0 
L 794 0 
L 794 531 
z
" id="DejaVuSans-31" transform="scale(0.015625)"/>
       </defs>
       <use xlink:href="#DejaVuSans-31"/>
       <use x="63.623047" xlink:href="#DejaVuSans-2e"/>
       <use x="95.410156" xlink:href="#DejaVuSans-30"/>
      </g>
     </g>
    </g>
    <g id="text_7">
     <!-- $t$ -->
     <g transform="translate(236.508437 269.787187)scale(0.14 -0.14)">
      <defs>
       <path d="M 2706 3500 
L 2619 3053 
L 1472 3053 
L 1100 1153 
Q 1081 1047 1072 975 
Q 1063 903 1063 863 
Q 1063 663 1183 572 
Q 1303 481 1569 481 
L 2150 481 
L 2053 0 
L 1503 0 
Q 991 0 739 200 
Q 488 400 488 806 
Q 488 878 497 964 
Q 506 1050 525 1153 
L 897 3053 
L 409 3053 
L 500 3500 
L 978 3500 
L 1172 4494 
L 1747 4494 
L 1556 3500 
L 2706 3500 
z
" id="DejaVuSans-Oblique-74" transform="scale(0.015625)"/>
      </defs>
      <use transform="translate(0 0.78125)" xlink:href="#DejaVuSans-Oblique-74"/>
     </g>
    </g>
   </g>
   <g id="matplotlib.axis_2">
    <g id="ytick_1">
     <g id="line2d_13">
      <path clip-path="url(#pcf1d5fca28)" d="M 61.295938 219.554367 
L 417.320938 219.554367 
" style="fill:none;stroke:#b0b0b0;stroke-linecap:square;stroke-width:0.8;"/>
     </g>
     <g id="line2d_14">
      <defs>
       <path d="M 0 0 
L -3.5 0 
" id="m2e2544e0f6" style="stroke:#000000;stroke-width:0.8;"/>
      </defs>
      <g>
       <use style="stroke:#000000;stroke-width:0.8;" x="61.295938" xlink:href="#m2e2544e0f6" y="219.554367"/>
      </g>
     </g>
     <g id="text_8">
      <!-- −30 -->
      <g transform="translate(24.749375 224.873273)scale(0.14 -0.14)">
       <defs>
        <path d="M 678 2272 
L 4684 2272 
L 4684 1741 
L 678 1741 
L 678 2272 
z
" id="DejaVuSans-2212" transform="scale(0.015625)"/>
        <path d="M 2597 2516 
Q 3050 2419 3304 2112 
Q 3559 1806 3559 1356 
Q 3559 666 3084 287 
Q 2609 -91 1734 -91 
Q 1441 -91 1130 -33 
Q 819 25 488 141 
L 488 750 
Q 750 597 1062 519 
Q 1375 441 1716 441 
Q 2309 441 2620 675 
Q 2931 909 2931 1356 
Q 2931 1769 2642 2001 
Q 2353 2234 1838 2234 
L 1294 2234 
L 1294 2753 
L 1863 2753 
Q 2328 2753 2575 2939 
Q 2822 3125 2822 3475 
Q 2822 3834 2567 4026 
Q 2313 4219 1838 4219 
Q 1578 4219 1281 4162 
Q 984 4106 628 3988 
L 628 4550 
Q 988 4650 1302 4700 
Q 1616 4750 1894 4750 
Q 2613 4750 3031 4423 
Q 3450 4097 3450 3541 
Q 3450 3153 3228 2886 
Q 3006 2619 2597 2516 
z
" id="DejaVuSans-33" transform="scale(0.015625)"/>
       </defs>
       <use xlink:href="#DejaVuSans-2212"/>
       <use x="83.789062" xlink:href="#DejaVuSans-33"/>
       <use x="147.412109" xlink:href="#DejaVuSans-30"/>
      </g>
     </g>
    </g>
    <g id="ytick_2">
     <g id="line2d_15">
      <path clip-path="url(#pcf1d5fca28)" d="M 61.295938 186.669577 
L 417.320938 186.669577 
" style="fill:none;stroke:#b0b0b0;stroke-linecap:square;stroke-width:0.8;"/>
     </g>
     <g id="line2d_16">
      <g>
       <use style="stroke:#000000;stroke-width:0.8;" x="61.295938" xlink:href="#m2e2544e0f6" y="186.669577"/>
      </g>
     </g>
     <g id="text_9">
      <!-- −20 -->
      <g transform="translate(24.749375 191.988483)scale(0.14 -0.14)">
       <use xlink:href="#DejaVuSans-2212"/>
       <use x="83.789062" xlink:href="#DejaVuSans-32"/>
       <use x="147.412109" xlink:href="#DejaVuSans-30"/>
      </g>
     </g>
    </g>
    <g id="ytick_3">
     <g id="line2d_17">
      <path clip-path="url(#pcf1d5fca28)" d="M 61.295938 153.784786 
L 417.320938 153.784786 
" style="fill:none;stroke:#b0b0b0;stroke-linecap:square;stroke-width:0.8;"/>
     </g>
     <g id="line2d_18">
      <g>
       <use style="stroke:#000000;stroke-width:0.8;" x="61.295938" xlink:href="#m2e2544e0f6" y="153.784786"/>
      </g>
     </g>
     <g id="text_10">
      <!-- −10 -->
      <g transform="translate(24.749375 159.103693)scale(0.14 -0.14)">
       <use xlink:href="#DejaVuSans-2212"/>
       <use x="83.789062" xlink:href="#DejaVuSans-31"/>
       <use x="147.412109" xlink:href="#DejaVuSans-30"/>
      </g>
     </g>
    </g>
    <g id="ytick_4">
     <g id="line2d_19">
      <path clip-path="url(#pcf1d5fca28)" d="M 61.295938 120.899996 
L 417.320938 120.899996 
" style="fill:none;stroke:#b0b0b0;stroke-linecap:square;stroke-width:0.8;"/>
     </g>
     <g id="line2d_20">
      <g>
       <use style="stroke:#000000;stroke-width:0.8;" x="61.295938" xlink:href="#m2e2544e0f6" y="120.899996"/>
      </g>
     </g>
     <g id="text_11">
      <!-- 0 -->
      <g transform="translate(45.388438 126.218902)scale(0.14 -0.14)">
       <use xlink:href="#DejaVuSans-30"/>
      </g>
     </g>
    </g>
    <g id="ytick_5">
     <g id="line2d_21">
      <path clip-path="url(#pcf1d5fca28)" d="M 61.295938 88.015206 
L 417.320938 88.015206 
" style="fill:none;stroke:#b0b0b0;stroke-linecap:square;stroke-width:0.8;"/>
     </g>
     <g id="line2d_22">
      <g>
       <use style="stroke:#000000;stroke-width:0.8;" x="61.295938" xlink:href="#m2e2544e0f6" y="88.015206"/>
      </g>
     </g>
     <g id="text_12">
      <!-- 10 -->
      <g transform="translate(36.480938 93.334112)scale(0.14 -0.14)">
       <use xlink:href="#DejaVuSans-31"/>
       <use x="63.623047" xlink:href="#DejaVuSans-30"/>
      </g>
     </g>
    </g>
    <g id="ytick_6">
     <g id="line2d_23">
      <path clip-path="url(#pcf1d5fca28)" d="M 61.295938 55.130415 
L 417.320938 55.130415 
" style="fill:none;stroke:#b0b0b0;stroke-linecap:square;stroke-width:0.8;"/>
     </g>
     <g id="line2d_24">
      <g>
       <use style="stroke:#000000;stroke-width:0.8;" x="61.295938" xlink:href="#m2e2544e0f6" y="55.130415"/>
      </g>
     </g>
     <g id="text_13">
      <!-- 20 -->
      <g transform="translate(36.480938 60.449321)scale(0.14 -0.14)">
       <use xlink:href="#DejaVuSans-32"/>
       <use x="63.623047" xlink:href="#DejaVuSans-30"/>
      </g>
     </g>
    </g>
    <g id="ytick_7">
     <g id="line2d_25">
      <path clip-path="url(#pcf1d5fca28)" d="M 61.295938 22.245625 
L 417.320938 22.245625 
" style="fill:none;stroke:#b0b0b0;stroke-linecap:square;stroke-width:0.8;"/>
     </g>
     <g id="line2d_26">
      <g>
       <use style="stroke:#000000;stroke-width:0.8;" x="61.295938" xlink:href="#m2e2544e0f6" y="22.245625"/>
      </g>
     </g>
     <g id="text_14">
      <!-- 30 -->
      <g transform="translate(36.480938 27.564531)scale(0.14 -0.14)">
       <use xlink:href="#DejaVuSans-33"/>
       <use x="63.623047" xlink:href="#DejaVuSans-30"/>
      </g>
     </g>
    </g>
    <g id="text_15">
     <!-- $\omega$ -->
     <g transform="translate(17.837813 126.78)rotate(-90)scale(0.14 -0.14)">
      <defs>
       <path d="M 1369 -91 
Q 72 -91 434 1766 
Q 575 2500 1256 3500 
L 1875 3500 
Q 1231 2500 1088 1750 
Q 819 397 1519 397 
Q 2166 397 2478 2078 
L 3009 2078 
Q 2669 388 3316 397 
Q 4013 403 4275 1750 
Q 4419 2500 4169 3500 
L 4788 3500 
Q 5075 2500 4934 1766 
Q 4578 -94 3278 -91 
Q 2428 -88 2503 844 
Q 2194 -91 1369 -91 
z
" id="DejaVuSans-Oblique-3c9" transform="scale(0.015625)"/>
      </defs>
      <use transform="translate(0 0.3125)" xlink:href="#DejaVuSans-Oblique-3c9"/>
     </g>
    </g>
   </g>
   <g id="line2d_27">
    <path clip-path="url(#pcf1d5fca28)" d="M 77.478892 117.611517 
L 80.715483 116.873768 
L 83.952074 115.892657 
L 87.188665 114.609757 
L 90.425256 112.949542 
L 93.661847 110.816126 
L 96.898438 108.090164 
L 100.135028 104.627187 
L 103.371619 100.260113 
L 106.60821 94.811446 
L 109.844801 88.12517 
L 113.081392 80.13407 
L 116.317983 70.979971 
L 119.554574 61.186832 
L 122.791165 51.822513 
L 126.027756 44.472475 
L 129.264347 40.8099 
L 132.500938 41.818862 
L 135.737528 47.218045 
L 138.974119 55.633483 
L 142.21071 65.34699 
L 145.447301 74.966362 
L 148.683892 83.666597 
L 151.920483 91.108224 
L 155.157074 97.25625 
L 158.393665 102.226665 
L 161.630256 106.190303 
L 164.866847 109.322717 
L 168.103437 111.782194 
L 171.340028 113.702567 
L 174.576619 115.192943 
L 177.81321 116.340201 
L 181.049801 117.212258 
L 184.286392 117.861223 
L 187.522983 118.326095 
L 190.759574 118.634905 
L 193.996165 118.806308 
L 197.232756 118.850673 
L 200.469347 118.770684 
L 203.705937 118.561501 
L 206.942528 118.210475 
L 210.179119 117.696407 
L 213.41571 116.988326 
L 216.652301 116.043738 
L 219.888892 114.806324 
L 223.125483 113.203094 
L 226.362074 111.141154 
L 229.598665 108.50453 
L 232.835256 105.152188 
L 236.071847 100.919728 
L 239.308437 95.629775 
L 242.545028 89.12037 
L 245.781619 81.306321 
L 249.01821 72.291441 
L 252.254801 62.536095 
L 255.491392 53.02829 
L 258.727983 45.297311 
L 261.964574 41.046238 
L 265.201165 41.400092 
L 268.437756 46.259988 
L 271.674347 54.364007 
L 274.910937 63.993573 
L 278.147528 73.687513 
L 281.384119 82.54309 
L 284.62071 90.164553 
L 287.857301 96.485435 
L 291.093892 101.607944 
L 294.330483 105.699186 
L 297.567074 108.935834 
L 300.803665 111.4792 
L 304.040256 113.466588 
L 307.276847 115.010386 
L 310.513437 116.200336 
L 313.750028 117.106765 
L 316.986619 117.783779 
L 320.22321 118.272038 
L 323.459801 118.600971 
L 326.696392 118.790447 
L 329.932983 118.851925 
L 333.169574 118.789124 
L 336.406165 118.598245 
L 339.642756 118.267744 
L 342.879347 117.777658 
L 346.115937 117.098448 
L 349.352528 116.189326 
L 352.589119 114.996026 
L 355.82571 113.448036 
L 359.062301 111.455389 
L 362.298892 108.905442 
L 365.535483 105.660623 
L 368.772074 101.559392 
L 372.008665 96.42501 
L 375.245256 90.090697 
L 378.481847 82.455388 
L 381.718437 73.588105 
L 384.955028 63.889096 
L 388.191619 54.267178 
L 391.42821 46.188631 
L 394.664801 41.371423 
L 397.901392 41.0682 
L 401.137983 45.363773 
L 401.137983 45.363773 
" style="fill:none;stroke:#1f77b4;stroke-linecap:square;stroke-width:1.5;"/>
   </g>
   <g id="line2d_28">
    <path clip-path="url(#pcf1d5fca28)" d="M 77.478892 17.58938 
L 80.715483 17.632701 
L 83.952074 17.70389 
L 87.188665 17.820412 
L 90.425256 18.010769 
L 93.661847 18.321303 
L 96.898438 18.827008 
L 100.135028 19.648437 
L 103.371619 20.977271 
L 106.60821 23.112872 
L 109.844801 26.509147 
L 113.081392 31.821012 
L 116.317983 39.916135 
L 119.554574 51.777723 
L 122.791165 68.194649 
L 126.027756 89.209251 
L 129.264347 113.575464 
L 132.500938 138.788006 
L 135.737528 161.982551 
L 138.974119 181.123725 
L 142.21071 195.553218 
L 145.447301 205.705946 
L 148.683892 212.507795 
L 151.920483 216.916331 
L 155.157074 219.712666 
L 158.393665 221.46217 
L 161.630256 222.547332 
L 164.866847 223.216819 
L 168.103437 223.628477 
L 171.340028 223.881059 
L 174.576619 224.035797 
L 177.81321 224.130451 
L 181.049801 224.188205 
L 184.286392 224.223243 
L 187.522983 224.244179 
L 190.759574 224.256168 
L 193.996165 224.262162 
L 197.232756 224.263636 
L 200.469347 224.260955 
L 203.705937 224.253457 
L 206.942528 224.239297 
L 210.179119 224.214986 
L 213.41571 224.174543 
L 216.652301 224.108026 
L 219.888892 223.999111 
L 223.125483 223.821141 
L 226.362074 223.53076 
L 229.598665 223.057742 
L 232.835256 222.28908 
L 236.071847 221.044762 
L 239.308437 219.042797 
L 242.545028 215.853471 
L 245.781619 210.85151 
L 249.01821 203.19619 
L 252.254801 191.907619 
L 255.491392 176.142075 
L 258.727983 155.717372 
L 261.964574 131.685375 
L 265.201165 106.414097 
L 268.437756 82.793378 
L 271.674347 63.025884 
L 274.910937 47.95697 
L 278.147528 37.26689 
L 281.384119 30.064205 
L 284.62071 25.378245 
L 287.857301 22.39872 
L 291.093892 20.531744 
L 294.330483 19.372609 
L 297.567074 18.657058 
L 300.803665 18.216912 
L 304.040256 17.946786 
L 307.276847 17.781266 
L 310.513437 17.679993 
L 313.750028 17.618172 
L 316.986619 17.580624 
L 320.22321 17.558118 
L 323.459801 17.545115 
L 326.696392 17.538414 
L 329.932983 17.536364 
L 333.169574 17.538459 
L 336.406165 17.545216 
L 339.642756 17.558299 
L 342.879347 17.58093 
L 346.115937 17.618679 
L 349.352528 17.680826 
L 352.589119 17.782628 
L 355.82571 17.94901 
L 359.062301 18.22054 
L 362.298892 18.662964 
L 365.535483 19.382197 
L 368.772074 20.547242 
L 372.008665 22.423591 
L 375.245256 25.41771 
L 378.481847 30.125708 
L 381.718437 37.360102 
L 384.955028 48.092407 
L 388.191619 63.211015 
L 391.42821 83.02624 
L 394.664801 106.678062 
L 397.901392 131.951499 
L 401.137983 155.955773 
L 401.137983 155.955773 
" style="fill:none;stroke:#ff7f0e;stroke-linecap:square;stroke-width:1.5;"/>
   </g>
   <g id="line2d_29">
    <path clip-path="url(#pcf1d5fca28)" d="M 77.478892 117.611517 
L 80.715483 116.469418 
L 83.952074 115.0597 
L 87.188665 113.29823 
L 90.425256 111.08109 
L 93.661847 108.279947 
L 96.898438 104.737748 
L 100.135028 100.266319 
L 103.371619 94.649361 
L 106.60821 87.657867 
L 109.844801 79.090774 
L 113.081392 68.860891 
L 116.317983 57.148516 
L 119.554574 44.622616 
L 122.791165 32.647536 
L 126.027756 23.249362 
L 129.264347 18.566443 
L 132.500938 19.856473 
L 135.737528 26.759916 
L 138.974119 37.520789 
L 142.21071 49.94328 
L 145.447301 62.248382 
L 148.683892 73.382236 
L 151.920483 82.911776 
L 155.157074 90.793369 
L 158.393665 97.176697 
L 161.630256 102.281953 
L 164.866847 106.335899 
L 168.103437 109.543898 
L 171.340028 112.080919 
L 174.576619 114.091424 
L 177.81321 115.692868 
L 181.049801 116.980257 
L 184.286392 118.030682 
L 187.522983 118.907398 
L 190.759574 119.66338 
L 193.996165 120.344397 
L 197.232756 120.991725 
L 200.469347 121.644616 
L 203.705937 122.342655 
L 206.942528 123.128139 
L 210.179119 124.048604 
L 213.41571 125.159623 
L 216.652301 126.52801 
L 219.888892 128.235528 
L 223.125483 130.38311 
L 226.362074 133.095463 
L 229.598665 136.525485 
L 232.835256 140.857082 
L 236.071847 146.303224 
L 239.308437 153.092834 
L 242.545028 161.434636 
L 245.781619 171.43884 
L 249.01821 182.973772 
L 252.254801 195.451779 
L 255.491392 207.610605 
L 258.727983 217.495984 
L 261.964574 222.931375 
L 265.201165 222.478947 
L 268.437756 216.265082 
L 271.674347 205.902567 
L 274.910937 193.587728 
L 278.147528 181.187751 
L 281.384119 169.855878 
L 284.62071 160.09714 
L 287.857301 151.995437 
L 291.093892 145.418757 
L 294.330483 140.15173 
L 297.567074 135.966248 
L 300.803665 132.653182 
L 304.040256 130.033256 
L 307.276847 127.957982 
L 310.513437 126.30646 
L 313.750028 124.980877 
L 316.986619 123.901937 
L 320.22321 123.004706 
L 323.459801 122.23499 
L 326.696392 121.546199 
L 329.932983 120.89659 
L 333.169574 120.246775 
L 336.406165 119.557351 
L 339.642756 118.78654 
L 342.879347 117.887684 
L 346.115937 116.806493 
L 349.352528 115.477901 
L 352.589119 113.822439 
L 355.82571 111.742072 
L 359.062301 109.115633 
L 362.298892 105.794318 
L 365.535483 101.59852 
L 368.772074 96.318828 
L 372.008665 89.72705 
L 375.245256 81.608244 
L 378.481847 71.831859 
L 381.718437 60.485064 
L 384.955028 48.07864 
L 388.191619 35.773605 
L 391.42821 25.443671 
L 394.664801 19.284389 
L 397.901392 18.896697 
L 401.137983 24.388988 
L 401.137983 24.388988 
" style="fill:none;stroke:#2ca02c;stroke-linecap:square;stroke-width:1.5;"/>
   </g>
   <g id="patch_3">
    <path d="M 61.295938 234.6 
L 61.295938 7.2 
" style="fill:none;stroke:#000000;stroke-linecap:square;stroke-linejoin:miter;stroke-width:0.8;"/>
   </g>
   <g id="patch_4">
    <path d="M 417.320938 234.6 
L 417.320938 7.2 
" style="fill:none;stroke:#000000;stroke-linecap:square;stroke-linejoin:miter;stroke-width:0.8;"/>
   </g>
   <g id="patch_5">
    <path d="M 61.295938 234.6 
L 417.320938 234.6 
" style="fill:none;stroke:#000000;stroke-linecap:square;stroke-linejoin:miter;stroke-width:0.8;"/>
   </g>
   <g id="patch_6">
    <path d="M 61.295938 7.2 
L 417.320938 7.2 
" style="fill:none;stroke:#000000;stroke-linecap:square;stroke-linejoin:miter;stroke-width:0.8;"/>
   </g>
   <g id="legend_1">
    <g id="patch_7">
     <path d="M 344.240938 227.6 
L 407.520938 227.6 
Q 410.320938 227.6 410.320938 224.8 
L 410.320938 164.551875 
Q 410.320938 161.751875 407.520938 161.751875 
L 344.240938 161.751875 
Q 341.440938 161.751875 341.440938 164.551875 
L 341.440938 224.8 
Q 341.440938 227.6 344.240938 227.6 
z
" style="fill:#ffffff;opacity:0.8;stroke:#cccccc;stroke-linejoin:miter;"/>
    </g>
    <g id="line2d_30">
     <path d="M 347.040938 173.089687 
L 375.040938 173.089687 
" style="fill:none;stroke:#1f77b4;stroke-linecap:square;stroke-width:1.5;"/>
    </g>
    <g id="line2d_31"/>
    <g id="text_16">
     <!-- $\omega_1$ -->
     <g transform="translate(386.240938 177.989687)scale(0.14 -0.14)">
      <use transform="translate(0 0.3125)" xlink:href="#DejaVuSans-Oblique-3c9"/>
      <use transform="translate(83.740234 -16.09375)scale(0.7)" xlink:href="#DejaVuSans-31"/>
     </g>
    </g>
    <g id="line2d_32">
     <path d="M 347.040938 193.639062 
L 375.040938 193.639062 
" style="fill:none;stroke:#ff7f0e;stroke-linecap:square;stroke-width:1.5;"/>
    </g>
    <g id="line2d_33"/>
    <g id="text_17">
     <!-- $\omega_2$ -->
     <g transform="translate(386.240938 198.539062)scale(0.14 -0.14)">
      <use transform="translate(0 0.3125)" xlink:href="#DejaVuSans-Oblique-3c9"/>
      <use transform="translate(83.740234 -16.09375)scale(0.7)" xlink:href="#DejaVuSans-32"/>
     </g>
    </g>
    <g id="line2d_34">
     <path d="M 347.040938 214.188437 
L 375.040938 214.188437 
" style="fill:none;stroke:#2ca02c;stroke-linecap:square;stroke-width:1.5;"/>
    </g>
    <g id="line2d_35"/>
    <g id="text_18">
     <!-- $\omega_3$ -->
     <g transform="translate(386.240938 219.088437)scale(0.14 -0.14)">
      <use transform="translate(0 0.3125)" xlink:href="#DejaVuSans-Oblique-3c9"/>
      <use transform="translate(83.740234 -16.09375)scale(0.7)" xlink:href="#DejaVuSans-33"/>
     </g>
    </g>
   </g>
  </g>
 </g>
 <defs>
  <clipPath id="pcf1d5fca28">
   <rect height="227.4" width="356.025" x="61.295938" y="7.2"/>
  </clipPath>
 </defs>
</svg>
